<svg width="30" height="31" viewBox="0 0 30 31" fill="none" xmlns="http://www.w3.org/2000/svg">
<path d="M15 0C13.0109 0 11.1032 0.612387 9.6967 1.70244C8.29018 2.7925 7.5 4.27093 7.5 5.8125H0V7.75V29.0625V31H30V29.0625V7.75V5.8125H22.5C22.5 4.27093 21.7098 2.7925 20.3033 1.70244C18.8968 0.612387 16.9891 0 15 0ZM15 1.9375C16.3261 1.9375 17.5979 2.34576 18.5355 3.07246C19.4732 3.79916 20 4.78479 20 5.8125H10C10 4.78479 10.5268 3.79916 11.4645 3.07246C12.4021 2.34576 13.6739 1.9375 15 1.9375ZM2.5 7.75H7.5V9.85779C6.76972 10.0579 6.1373 10.4283 5.68965 10.9182C5.24201 11.4081 5.00109 11.9934 5 12.5938C5 13.3645 5.39509 14.1038 6.09835 14.6488C6.80161 15.1938 7.75544 15.5 8.75 15.5C9.74456 15.5 10.6984 15.1938 11.4017 14.6488C12.1049 14.1038 12.5 13.3645 12.5 12.5938C12.4989 11.9934 12.258 11.4081 11.8103 10.9182C11.3627 10.4283 10.7303 10.0579 10 9.85779V7.75H20V9.85779C19.2697 10.0579 18.6373 10.4283 18.1897 10.9182C17.742 11.4081 17.5011 11.9934 17.5 12.5938C17.5 13.3645 17.8951 14.1038 18.5983 14.6488C19.3016 15.1938 20.2554 15.5 21.25 15.5C22.2446 15.5 23.1984 15.1938 23.9017 14.6488C24.6049 14.1038 25 13.3645 25 12.5938C24.9989 11.9934 24.758 11.4081 24.3103 10.9182C23.8627 10.4283 23.2303 10.0579 22.5 9.85779V7.75H27.5V29.0625H2.5V7.75ZM8.75 11.625C9.08152 11.625 9.39946 11.7271 9.63388 11.9087C9.8683 12.0904 10 12.3368 10 12.5938C10 12.8507 9.8683 13.0971 9.63388 13.2788C9.39946 13.4604 9.08152 13.5625 8.75 13.5625C8.41848 13.5625 8.10054 13.4604 7.86612 13.2788C7.6317 13.0971 7.5 12.8507 7.5 12.5938C7.5 12.3368 7.6317 12.0904 7.86612 11.9087C8.10054 11.7271 8.41848 11.625 8.75 11.625ZM21.25 11.625C21.5815 11.625 21.8995 11.7271 22.1339 11.9087C22.3683 12.0904 22.5 12.3368 22.5 12.5938C22.5 12.8507 22.3683 13.0971 22.1339 13.2788C21.8995 13.4604 21.5815 13.5625 21.25 13.5625C20.9185 13.5625 20.6005 13.4604 20.3661 13.2788C20.1317 13.0971 20 12.8507 20 12.5938C20 12.3368 20.1317 12.0904 20.3661 11.9087C20.6005 11.7271 20.9185 11.625 21.25 11.625Z" fill="white"/>
</svg>
