<svg width="153" height="114" viewBox="0 0 153 114" fill="none" xmlns="http://www.w3.org/2000/svg">
<path d="M36.5659 57.419C32.8658 57.6093 24.2031 57.7615 17.3253 57.7235H4.78839L4.48368 58.7128C4.30955 59.4358 4.39661 59.8544 4.91898 60.1207C5.52842 60.4632 5.52842 60.5393 4.91898 60.9579C4.52721 61.1862 4.22249 61.9472 4.22249 62.6321C4.22249 63.6215 4.00484 63.9259 2.9601 64.2303C1.65417 64.6489 1.21886 66.0568 2.3942 66.0568C2.74244 66.0568 3.04716 66.209 3.04716 66.4373C3.04716 66.6276 3.35187 66.8178 3.70012 66.8178C4.0919 66.8178 4.22249 67.0461 4.0919 67.3886C3.91777 67.693 4.04837 67.9974 4.30955 67.9974C4.57074 68.0355 5.00605 68.1116 5.2237 68.1496C5.48488 68.1877 5.96372 68.2638 6.3555 68.3018C6.70375 68.3018 6.87787 68.4921 6.74728 68.7204C6.61669 68.9107 6.70375 69.1009 6.9214 69.1009C7.96614 69.1009 7.31318 69.9 5.7896 70.4708C4.57074 70.9274 4.35308 71.1557 4.87545 71.2699C5.57195 71.4221 5.57195 71.4982 5.00605 72.0309C4.52721 72.4495 4.44015 72.7539 4.78839 73.0964C5.13664 73.4388 4.74486 73.6671 3.17775 74.0477C0.0870617 74.7326 0 74.7706 0 75.1131C0 75.4556 3.526 77.0918 4.30955 77.0918C4.57074 77.0918 4.78839 77.3201 4.78839 77.6245C4.78839 77.9289 5.09311 78.2714 5.48488 78.3856C5.83313 78.4997 6.00726 78.7661 5.87666 78.9944C5.74607 79.1847 6.00726 79.3749 6.44256 79.3749C6.9214 79.3749 7.40024 79.7174 7.53083 80.1359C7.66143 80.5926 8.61911 81.2395 9.8815 81.7341C11.971 82.5332 13.1463 83.4845 12.7981 84.0172C12.6675 84.2075 12.8851 84.3216 13.3204 84.3216C13.7122 84.3216 14.2781 84.6261 14.5828 84.9685C15.0617 85.5393 15.4099 85.5774 17.2382 85.1588C18.6312 84.8924 23.8984 84.7022 31.9952 84.7022C38.9601 84.6641 46.8827 84.6261 49.6251 84.588C52.3676 84.55 61.1608 84.6641 69.1705 84.8544C80.445 85.0827 83.6227 85.0446 83.3615 84.7022C83.1874 84.4358 83.5357 84.5119 84.1016 84.8544C85.0592 85.4251 87.9758 85.5012 109.959 85.5774C129.591 85.6535 134.989 85.5393 136.077 85.1588C136.861 84.8544 137.819 84.0172 138.385 83.142C139.125 82.0005 139.647 81.658 140.518 81.62C142.476 81.5819 145.959 79.6793 146.917 78.1573C147.57 77.0538 148.092 76.7493 149.398 76.5591C150.312 76.4069 151.052 76.1405 151.052 75.9503C151.052 75.7219 151.357 75.5697 151.748 75.5697C152.097 75.5697 152.314 75.4175 152.14 75.2273C152.01 74.999 152.184 74.6945 152.576 74.5423C153.141 74.2379 153.141 74.1238 152.576 73.4008C152.227 72.9442 151.357 72.4875 150.66 72.3353C149.746 72.1831 149.441 71.9168 149.615 71.5362C149.746 71.2318 149.615 70.7372 149.311 70.4327C148.701 69.8239 149.05 69.5956 151.052 69.4053C152.706 69.2151 152.532 67.8072 150.834 67.655C149.224 67.5028 148.484 66.932 149.441 66.5895C150.268 66.3232 150.486 64.3445 149.746 63.9639C149.398 63.7737 149.441 63.5073 149.833 63.1268C150.138 62.7843 150.443 62.1375 150.486 61.7189C150.53 61.2623 150.704 60.3871 150.878 59.7402C151.096 58.6367 151.008 58.5225 149.746 58.104C148.963 57.8757 147.047 57.6093 145.48 57.5332C143.608 57.419 143.086 57.4571 144.087 57.6093C145.567 57.9137 145.567 57.9137 143.173 58.1801C140.648 58.4845 136.382 58.1801 135.599 57.6854C134.989 57.2668 125.151 57.1907 84.4498 57.3049C65.1657 57.381 48.058 57.3429 46.3603 57.2288C44.7062 57.1527 40.266 57.2288 36.5659 57.419ZM51.7582 59.626C54.6747 60.1588 56.416 61.7189 57.0254 64.3825C57.8525 67.8833 56.503 71.4221 53.8041 72.8681C50.8005 74.5043 46.0121 74.276 43.5744 72.3734C40.2225 69.7478 40.7449 62.9746 44.4885 60.6154C45.4462 59.9685 46.7956 59.626 49.2769 59.2455C49.451 59.2455 50.5828 59.3977 51.7582 59.626ZM32.2128 60.6915C32.2128 61.3764 31.9516 61.8711 31.5599 61.9472C31.081 62.0233 31.1681 62.4419 32.1693 63.8878L33.3881 65.7143L34.4329 63.9639C35.3906 62.3277 35.4341 62.1755 34.7376 61.833C34.3023 61.6047 33.954 61.034 33.954 60.5393C33.954 59.626 34.0411 59.588 37.0012 59.588H40.0484V60.6915C40.0484 61.3003 39.8742 61.8711 39.6566 61.9472C39.4389 61.9853 38.2636 63.3171 37.0447 64.8772C35.26 67.1983 34.8247 67.9974 34.8247 69.3292C34.8247 70.585 35.0423 71.0416 35.8694 71.5362C36.4788 71.8787 36.9141 72.4495 36.8706 72.9061C36.8271 73.591 36.5224 73.6671 32.7787 73.6671H28.7304V72.5636C28.7304 71.8026 28.9915 71.4221 29.601 71.2699C30.2539 71.1177 30.4716 70.7372 30.4716 69.7098C30.4716 68.6824 29.8186 67.3886 27.8597 64.6869C24.2902 59.7782 24.3337 59.588 28.7304 59.588H32.2128V60.6915ZM71.5647 60.1968C72.0871 61.3764 71.7823 61.9472 68.1258 66.209C66.0798 68.5682 64.4256 70.585 64.4256 70.6991C64.4256 70.8133 65.3398 70.8133 66.5151 70.7372C67.9516 70.585 68.8223 70.2805 69.4317 69.6337C70.0411 68.9868 70.607 68.7965 71.3035 68.9487C72.3482 69.2151 72.3918 69.3292 72 71.9168L71.6953 73.6671H65.2527H58.7666V72.2212C58.7666 71.0416 59.3761 70.1283 62.2056 66.8178L65.6445 62.8224L64.3386 62.7082C63.3809 62.5941 62.6844 62.8604 61.8573 63.5454C61.0738 64.1923 60.4208 64.4586 59.7678 64.3064C58.9843 64.1162 58.8537 63.8878 59.0278 62.7082C59.5502 59.2836 58.9407 59.588 65.4704 59.588C70.3894 59.588 71.347 59.6641 71.5647 60.1968ZM80.9673 60.6915C80.9673 61.4525 80.7062 61.833 80.0967 61.9853C79.4002 62.1375 79.2261 62.518 79.2261 63.7737V65.3338L81.7509 65.2197L84.2322 65.1055L84.3628 63.6976C84.4498 62.5941 84.3192 62.2136 83.5792 61.8711C82.9698 61.6047 82.7086 61.1481 82.7956 60.6154C82.9262 59.8544 83.1874 59.7782 86.4522 59.6641L90.0218 59.5499L90.1959 60.6915C90.3265 61.5667 90.1959 61.9091 89.5865 62.0994C88.89 62.2897 88.8029 62.7843 88.8029 66.5895C88.8029 70.4708 88.89 70.9655 89.6735 71.4221C90.283 71.8026 90.4571 72.2212 90.283 72.792C90.0218 73.591 89.7606 73.6671 86.6264 73.6671C83.3615 73.6671 83.2309 73.6291 83.0133 72.7159C82.8827 72.0309 83.0568 71.6124 83.6227 71.346C84.2322 71.0796 84.4498 70.5469 84.4498 69.4815V67.9594H81.838H79.2261V69.4815C79.2261 70.585 79.4438 71.0796 80.0967 71.384C80.6191 71.6124 80.9673 72.1831 80.9673 72.7159C80.9673 73.6671 80.9238 73.6671 77.3108 73.6671C73.7412 73.6671 73.6542 73.6291 73.4365 72.7159C73.3059 72.0309 73.48 71.6124 74.0459 71.346C74.786 71.0035 74.873 70.4708 74.873 66.7798C74.873 62.9365 74.786 62.518 73.9589 61.9091C73.2624 61.4525 73.0883 61.034 73.3059 60.4251C73.6106 59.6641 73.9154 59.588 77.3108 59.588H80.9673V60.6915ZM98.5538 60.4251C98.7279 60.9959 98.5538 61.4525 98.075 61.795C97.3785 62.2136 97.422 62.3658 98.2491 63.6595C98.7715 64.4586 99.3809 65.1435 99.555 65.1816C99.7727 65.2577 100.382 64.6489 100.904 63.8117C101.906 62.2897 101.906 62.2897 100.992 61.8711C100.469 61.6428 100.121 61.072 100.121 60.5393C100.121 59.626 100.208 59.588 103.125 59.588C105.867 59.588 106.128 59.6641 106.346 60.4251C106.52 61.034 106.302 61.6047 105.606 62.2516C103.299 64.4586 100.992 67.9213 100.992 69.2531C100.992 70.5088 101.862 71.7646 102.776 71.7646C102.994 71.7646 103.168 72.1831 103.168 72.7159C103.168 73.6671 103.168 73.6671 99.0326 73.6671H94.8972V72.5256C94.8972 71.6504 95.0713 71.384 95.7678 71.384C96.5079 71.384 96.6385 71.1177 96.6385 69.7478C96.6385 68.4921 96.2031 67.5028 94.636 65.2958C93.5042 63.7356 92.3289 62.1755 92.0242 61.833C91.6759 61.5286 91.4147 60.8818 91.4147 60.4251C91.4147 59.626 91.6324 59.588 94.8537 59.588C98.0314 59.588 98.2926 59.6641 98.5538 60.4251ZM114.921 59.8544C114.921 60.0446 115.052 60.5393 115.183 60.9579C115.357 61.5667 115.183 61.833 114.53 61.9853C113.746 62.1375 113.615 62.4799 113.615 64.04V65.8665L115.574 64.1162C117.316 62.518 117.49 62.2136 117.229 60.9579L116.967 59.588H119.884C122.583 59.588 122.757 59.626 122.757 60.4251C122.713 60.9579 121.625 62.3277 120.189 63.7356L117.62 66.209L120.406 69.3673C123.889 73.2866 123.932 73.7433 120.929 73.591C118.665 73.4769 118.665 73.4769 116.227 70.6991L113.833 67.9213L113.703 69.3673C113.572 70.4708 113.746 70.9655 114.443 71.4221C114.965 71.8026 115.357 72.4495 115.357 72.8681C115.357 73.6291 115.139 73.6671 111.439 73.6671H107.521V72.5636C107.521 71.8026 107.782 71.4221 108.392 71.2699C109.175 71.0796 109.262 70.7372 109.262 66.8559C109.262 63.0507 109.175 62.5941 108.392 62.1755C107.869 61.8711 107.521 61.2623 107.521 60.6534V59.588H111.221C113.267 59.588 114.921 59.7021 114.921 59.8544ZM40.7449 76.9015C40.5707 77.4343 40.7013 78.5758 40.9625 79.413C41.7025 81.4678 42.399 80.7448 42.399 78.0431V75.9503H44.0532C45.2285 75.9503 45.7074 76.1025 45.7074 76.521C45.7074 76.8254 45.5333 77.0918 45.3156 77.0918C44.9674 77.0918 45.8815 80.4023 46.3168 80.7828C46.4039 80.8589 46.7956 80.174 47.1439 79.2227C47.5357 78.1953 47.6663 77.3962 47.4051 77.2821C46.4039 76.7113 47.0568 75.9503 48.5369 75.9503C49.364 75.9503 50.0605 76.1405 50.0605 76.3688C50.0605 76.5971 49.4075 78.1953 48.6675 79.9457C47.4051 82.6854 47.0568 83.142 46.0992 83.2562C45.0544 83.4084 44.8803 83.2562 44.4015 81.8863L43.8355 80.3262L43.1826 81.658C42.7908 82.381 42.4861 82.9898 42.4426 83.0279C42.4426 83.0659 41.9202 83.1801 41.2672 83.3323C40.1354 83.5606 40.0919 83.4845 38.786 79.9076C38.0459 77.9289 37.4365 76.2166 37.4365 76.1025C37.4365 76.0264 38.2201 75.9503 39.2213 75.9503C40.919 75.9503 41.006 75.9883 40.7449 76.9015ZM57.4607 76.3308C58.7666 76.9396 59.3761 79.451 58.5925 81.0492C57.8525 82.6474 56.7642 83.1801 54.4571 83.1801C51.9323 83.1801 50.9311 82.1907 50.9311 79.7554C50.9311 77.206 52.237 75.9503 54.8489 75.9503C55.8501 75.9503 57.0254 76.1405 57.4607 76.3308ZM67.4728 77.0918C67.4728 78.2334 66.5586 78.69 65.9492 77.8528C65.8186 77.6245 65.3833 77.4723 65.0351 77.4723C64.1645 77.4723 64.1645 81.3917 65.0786 82.0385C66.2104 82.8757 65.7751 83.1801 63.555 83.1801C61.9008 83.1801 61.3785 83.0279 61.3785 82.6093C61.3785 82.3049 61.5961 82.0385 61.8138 82.0385C62.075 82.0385 62.2491 81.0111 62.2491 79.7554C62.2491 78.005 62.1185 77.4723 61.6397 77.4723C61.2914 77.4723 60.8561 77.6245 60.7255 77.8528C60.2031 78.6139 59.6372 78.1953 59.6372 77.0918V75.9503H63.555H67.4728V77.0918ZM76.8319 76.4449C77.4414 76.8635 77.5719 77.2821 77.3543 78.1573C77.1802 78.8041 77.2672 79.451 77.4849 79.5652C78.312 80.0218 77.9637 81.9624 76.9625 82.5713C75.6566 83.3704 70.9553 83.4084 70.9553 82.6474C70.9553 82.343 71.1729 81.9624 71.3906 81.8483C72.0435 81.5058 71.9129 78.1192 71.1729 77.244C70.8247 76.7874 70.6941 76.3308 70.8247 76.1786C71.347 75.7219 76.0048 75.9503 76.8319 76.4449ZM85.5381 76.9015C86.3652 77.5865 86.6264 78.2334 86.6264 79.5652C86.6264 81.9624 85.2769 83.1801 82.578 83.1801C79.6614 83.1801 78.5732 82.2288 78.5732 79.7554C78.5732 78.0812 78.7473 77.6626 79.792 76.8635C81.4897 75.6078 84.1016 75.6078 85.5381 76.9015ZM94.2443 76.9015C95.0713 77.5865 95.3325 78.2334 95.3325 79.5652C95.3325 81.9244 93.9395 83.1801 91.4147 83.1801C89.0206 83.1801 88.1064 82.6854 87.497 81.0872C86.8875 79.451 87.5405 77.3962 88.9335 76.521C90.4135 75.6078 93.0254 75.798 94.2443 76.9015ZM102.21 76.8635C102.472 78.005 101.644 78.3856 100.382 77.6245C99.555 77.206 99.0762 77.0918 98.7715 77.3582C98.4667 77.6245 98.9021 78.1192 100.208 78.8802C103.603 80.8589 102.689 83.1801 98.5103 83.1801C96.2467 83.1801 96.2031 83.1801 96.2031 82.0385C96.2031 80.7828 96.769 80.5926 97.8138 81.4678C98.5103 82.1146 99.6856 82.1146 99.7727 81.4678C99.7727 81.2395 99.3809 80.897 98.8585 80.6687C96.2031 79.4891 95.5502 78.0431 97.1173 76.6732C98.2926 75.6458 101.993 75.76 102.21 76.8635ZM111.004 77.0918C111.004 78.2334 110.089 78.69 109.48 77.8528C109.349 77.6245 108.914 77.4723 108.566 77.4723C107.695 77.4723 107.695 81.3917 108.609 82.0385C109.741 82.8757 109.306 83.1801 107.086 83.1801C105.432 83.1801 104.909 83.0279 104.909 82.6093C104.909 82.3049 105.127 82.0385 105.345 82.0385C105.606 82.0385 105.78 81.0111 105.78 79.7554C105.78 78.005 105.649 77.4723 105.17 77.4723C104.822 77.4723 104.387 77.6245 104.256 77.8528C103.734 78.6139 103.168 78.1953 103.168 77.0918V75.9503H107.086H111.004V77.0918ZM104.605 84.588C104.3 84.6641 103.778 84.6641 103.516 84.588C103.212 84.4739 103.429 84.3977 104.039 84.3977C104.648 84.3977 104.866 84.4739 104.605 84.588Z" fill="black"/>
<path d="M36.5659 57.419C32.8658 57.6093 24.2031 57.7615 17.3253 57.7235H4.78839L4.48368 58.7128C4.30955 59.4358 4.39661 59.8544 4.91898 60.1207C5.52842 60.4632 5.52842 60.5393 4.91898 60.9579C4.52721 61.1862 4.22249 61.9472 4.22249 62.6321C4.22249 63.6215 4.00484 63.9259 2.9601 64.2303C1.65417 64.6489 1.21886 66.0568 2.3942 66.0568C2.74244 66.0568 3.04716 66.209 3.04716 66.4373C3.04716 66.6276 3.35187 66.8178 3.70012 66.8178C4.0919 66.8178 4.22249 67.0461 4.0919 67.3886C3.91777 67.693 4.04837 67.9974 4.30955 67.9974C4.57074 68.0355 5.00605 68.1116 5.2237 68.1496C5.48488 68.1877 5.96372 68.2638 6.3555 68.3018C6.70375 68.3018 6.87787 68.4921 6.74728 68.7204C6.61669 68.9107 6.70375 69.1009 6.9214 69.1009C7.96614 69.1009 7.31318 69.9 5.7896 70.4708C4.57074 70.9274 4.35308 71.1557 4.87545 71.2699C5.57195 71.4221 5.57195 71.4982 5.00605 72.0309C4.52721 72.4495 4.44015 72.7539 4.78839 73.0964C5.13664 73.4388 4.74486 73.6671 3.17775 74.0477C0.0870617 74.7326 0 74.7706 0 75.1131C0 75.4556 3.526 77.0918 4.30955 77.0918C4.57074 77.0918 4.78839 77.3201 4.78839 77.6245C4.78839 77.9289 5.09311 78.2714 5.48488 78.3856C5.83313 78.4997 6.00726 78.7661 5.87666 78.9944C5.74607 79.1847 6.00726 79.3749 6.44256 79.3749C6.9214 79.3749 7.40024 79.7174 7.53083 80.1359C7.66143 80.5926 8.61911 81.2395 9.8815 81.7341C11.971 82.5332 13.1463 83.4845 12.7981 84.0172C12.6675 84.2075 12.8851 84.3216 13.3204 84.3216C13.7122 84.3216 14.2781 84.6261 14.5828 84.9685C15.0617 85.5393 15.4099 85.5774 17.2382 85.1588C18.6312 84.8924 23.8984 84.7022 31.9952 84.7022C38.9601 84.6641 46.8827 84.6261 49.6251 84.588C52.3676 84.55 61.1608 84.6641 69.1705 84.8544C80.445 85.0827 83.6227 85.0446 83.3615 84.7022C83.1874 84.4358 83.5357 84.5119 84.1016 84.8544C85.0592 85.4251 87.9758 85.5012 109.959 85.5774C129.591 85.6535 134.989 85.5393 136.077 85.1588C136.861 84.8544 137.819 84.0172 138.385 83.142C139.125 82.0005 139.647 81.658 140.518 81.62C142.476 81.5819 145.959 79.6793 146.917 78.1573C147.57 77.0538 148.092 76.7493 149.398 76.5591C150.312 76.4069 151.052 76.1405 151.052 75.9503C151.052 75.7219 151.357 75.5697 151.748 75.5697C152.097 75.5697 152.314 75.4175 152.14 75.2273C152.01 74.999 152.184 74.6945 152.576 74.5423C153.141 74.2379 153.141 74.1238 152.576 73.4008C152.227 72.9442 151.357 72.4875 150.66 72.3353C149.746 72.1831 149.441 71.9168 149.615 71.5362C149.746 71.2318 149.615 70.7372 149.311 70.4327C148.701 69.8239 149.05 69.5956 151.052 69.4053C152.706 69.2151 152.532 67.8072 150.834 67.655C149.224 67.5028 148.484 66.932 149.441 66.5895C150.268 66.3232 150.486 64.3445 149.746 63.9639C149.398 63.7737 149.441 63.5073 149.833 63.1268C150.138 62.7843 150.443 62.1375 150.486 61.7189C150.53 61.2623 150.704 60.3871 150.878 59.7402C151.096 58.6367 151.008 58.5225 149.746 58.104C148.963 57.8757 147.047 57.6093 145.48 57.5332C143.608 57.419 143.086 57.4571 144.087 57.6093C145.567 57.9137 145.567 57.9137 143.173 58.1801C140.648 58.4845 136.382 58.1801 135.599 57.6854C134.989 57.2668 125.151 57.1907 84.4498 57.3049C65.1657 57.381 48.058 57.3429 46.3603 57.2288C44.7062 57.1527 40.266 57.2288 36.5659 57.419ZM51.7582 59.626C54.6747 60.1588 56.416 61.7189 57.0254 64.3825C57.8525 67.8833 56.503 71.4221 53.8041 72.8681C50.8005 74.5043 46.0121 74.276 43.5744 72.3734C40.2225 69.7478 40.7449 62.9746 44.4885 60.6154C45.4462 59.9685 46.7956 59.626 49.2769 59.2455C49.451 59.2455 50.5828 59.3977 51.7582 59.626ZM32.2128 60.6915C32.2128 61.3764 31.9516 61.8711 31.5599 61.9472C31.081 62.0233 31.1681 62.4419 32.1693 63.8878L33.3881 65.7143L34.4329 63.9639C35.3906 62.3277 35.4341 62.1755 34.7376 61.833C34.3023 61.6047 33.954 61.034 33.954 60.5393C33.954 59.626 34.0411 59.588 37.0012 59.588H40.0484V60.6915C40.0484 61.3003 39.8742 61.8711 39.6566 61.9472C39.4389 61.9853 38.2636 63.3171 37.0447 64.8772C35.26 67.1983 34.8247 67.9974 34.8247 69.3292C34.8247 70.585 35.0423 71.0416 35.8694 71.5362C36.4788 71.8787 36.9141 72.4495 36.8706 72.9061C36.8271 73.591 36.5224 73.6671 32.7787 73.6671H28.7304V72.5636C28.7304 71.8026 28.9915 71.4221 29.601 71.2699C30.2539 71.1177 30.4716 70.7372 30.4716 69.7098C30.4716 68.6824 29.8186 67.3886 27.8597 64.6869C24.2902 59.7782 24.3337 59.588 28.7304 59.588H32.2128V60.6915ZM71.5647 60.1968C72.0871 61.3764 71.7823 61.9472 68.1258 66.209C66.0798 68.5682 64.4256 70.585 64.4256 70.6991C64.4256 70.8133 65.3398 70.8133 66.5151 70.7372C67.9516 70.585 68.8223 70.2805 69.4317 69.6337C70.0411 68.9868 70.607 68.7965 71.3035 68.9487C72.3482 69.2151 72.3918 69.3292 72 71.9168L71.6953 73.6671H65.2527H58.7666V72.2212C58.7666 71.0416 59.3761 70.1283 62.2056 66.8178L65.6445 62.8224L64.3386 62.7082C63.3809 62.5941 62.6844 62.8604 61.8573 63.5454C61.0738 64.1923 60.4208 64.4586 59.7678 64.3064C58.9843 64.1162 58.8537 63.8878 59.0278 62.7082C59.5502 59.2836 58.9407 59.588 65.4704 59.588C70.3894 59.588 71.347 59.6641 71.5647 60.1968ZM80.9673 60.6915C80.9673 61.4525 80.7062 61.833 80.0967 61.9853C79.4002 62.1375 79.2261 62.518 79.2261 63.7737V65.3338L81.7509 65.2197L84.2322 65.1055L84.3628 63.6976C84.4498 62.5941 84.3192 62.2136 83.5792 61.8711C82.9698 61.6047 82.7086 61.1481 82.7956 60.6154C82.9262 59.8544 83.1874 59.7782 86.4522 59.6641L90.0218 59.5499L90.1959 60.6915C90.3265 61.5667 90.1959 61.9091 89.5865 62.0994C88.89 62.2897 88.8029 62.7843 88.8029 66.5895C88.8029 70.4708 88.89 70.9655 89.6735 71.4221C90.283 71.8026 90.4571 72.2212 90.283 72.792C90.0218 73.591 89.7606 73.6671 86.6264 73.6671C83.3615 73.6671 83.2309 73.6291 83.0133 72.7159C82.8827 72.0309 83.0568 71.6124 83.6227 71.346C84.2322 71.0796 84.4498 70.5469 84.4498 69.4815V67.9594H81.838H79.2261V69.4815C79.2261 70.585 79.4438 71.0796 80.0967 71.384C80.6191 71.6124 80.9673 72.1831 80.9673 72.7159C80.9673 73.6671 80.9238 73.6671 77.3108 73.6671C73.7412 73.6671 73.6542 73.6291 73.4365 72.7159C73.3059 72.0309 73.48 71.6124 74.0459 71.346C74.786 71.0035 74.873 70.4708 74.873 66.7798C74.873 62.9365 74.786 62.518 73.9589 61.9091C73.2624 61.4525 73.0883 61.034 73.3059 60.4251C73.6106 59.6641 73.9154 59.588 77.3108 59.588H80.9673V60.6915ZM98.5538 60.4251C98.7279 60.9959 98.5538 61.4525 98.075 61.795C97.3785 62.2136 97.422 62.3658 98.2491 63.6595C98.7715 64.4586 99.3809 65.1435 99.555 65.1816C99.7727 65.2577 100.382 64.6489 100.904 63.8117C101.906 62.2897 101.906 62.2897 100.992 61.8711C100.469 61.6428 100.121 61.072 100.121 60.5393C100.121 59.626 100.208 59.588 103.125 59.588C105.867 59.588 106.128 59.6641 106.346 60.4251C106.52 61.034 106.302 61.6047 105.606 62.2516C103.299 64.4586 100.992 67.9213 100.992 69.2531C100.992 70.5088 101.862 71.7646 102.776 71.7646C102.994 71.7646 103.168 72.1831 103.168 72.7159C103.168 73.6671 103.168 73.6671 99.0326 73.6671H94.8972V72.5256C94.8972 71.6504 95.0713 71.384 95.7678 71.384C96.5079 71.384 96.6385 71.1177 96.6385 69.7478C96.6385 68.4921 96.2031 67.5028 94.636 65.2958C93.5042 63.7356 92.3289 62.1755 92.0242 61.833C91.6759 61.5286 91.4147 60.8818 91.4147 60.4251C91.4147 59.626 91.6324 59.588 94.8537 59.588C98.0314 59.588 98.2926 59.6641 98.5538 60.4251ZM114.921 59.8544C114.921 60.0446 115.052 60.5393 115.183 60.9579C115.357 61.5667 115.183 61.833 114.53 61.9853C113.746 62.1375 113.615 62.4799 113.615 64.04V65.8665L115.574 64.1162C117.316 62.518 117.49 62.2136 117.229 60.9579L116.967 59.588H119.884C122.583 59.588 122.757 59.626 122.757 60.4251C122.713 60.9579 121.625 62.3277 120.189 63.7356L117.62 66.209L120.406 69.3673C123.889 73.2866 123.932 73.7433 120.929 73.591C118.665 73.4769 118.665 73.4769 116.227 70.6991L113.833 67.9213L113.703 69.3673C113.572 70.4708 113.746 70.9655 114.443 71.4221C114.965 71.8026 115.357 72.4495 115.357 72.8681C115.357 73.6291 115.139 73.6671 111.439 73.6671H107.521V72.5636C107.521 71.8026 107.782 71.4221 108.392 71.2699C109.175 71.0796 109.262 70.7372 109.262 66.8559C109.262 63.0507 109.175 62.5941 108.392 62.1755C107.869 61.8711 107.521 61.2623 107.521 60.6534V59.588H111.221C113.267 59.588 114.921 59.7021 114.921 59.8544ZM40.7449 76.9015C40.5707 77.4343 40.7013 78.5758 40.9625 79.413C41.7025 81.4678 42.399 80.7448 42.399 78.0431V75.9503H44.0532C45.2285 75.9503 45.7074 76.1025 45.7074 76.521C45.7074 76.8254 45.5333 77.0918 45.3156 77.0918C44.9674 77.0918 45.8815 80.4023 46.3168 80.7828C46.4039 80.8589 46.7956 80.174 47.1439 79.2227C47.5357 78.1953 47.6663 77.3962 47.4051 77.2821C46.4039 76.7113 47.0568 75.9503 48.5369 75.9503C49.364 75.9503 50.0605 76.1405 50.0605 76.3688C50.0605 76.5971 49.4075 78.1953 48.6675 79.9457C47.4051 82.6854 47.0568 83.142 46.0992 83.2562C45.0544 83.4084 44.8803 83.2562 44.4015 81.8863L43.8355 80.3262L43.1826 81.658C42.7908 82.381 42.4861 82.9898 42.4426 83.0279C42.4426 83.0659 41.9202 83.1801 41.2672 83.3323C40.1354 83.5606 40.0919 83.4845 38.786 79.9076C38.0459 77.9289 37.4365 76.2166 37.4365 76.1025C37.4365 76.0264 38.2201 75.9503 39.2213 75.9503C40.919 75.9503 41.006 75.9883 40.7449 76.9015ZM57.4607 76.3308C58.7666 76.9396 59.3761 79.451 58.5925 81.0492C57.8525 82.6474 56.7642 83.1801 54.4571 83.1801C51.9323 83.1801 50.9311 82.1907 50.9311 79.7554C50.9311 77.206 52.237 75.9503 54.8489 75.9503C55.8501 75.9503 57.0254 76.1405 57.4607 76.3308ZM67.4728 77.0918C67.4728 78.2334 66.5586 78.69 65.9492 77.8528C65.8186 77.6245 65.3833 77.4723 65.0351 77.4723C64.1645 77.4723 64.1645 81.3917 65.0786 82.0385C66.2104 82.8757 65.7751 83.1801 63.555 83.1801C61.9008 83.1801 61.3785 83.0279 61.3785 82.6093C61.3785 82.3049 61.5961 82.0385 61.8138 82.0385C62.075 82.0385 62.2491 81.0111 62.2491 79.7554C62.2491 78.005 62.1185 77.4723 61.6397 77.4723C61.2914 77.4723 60.8561 77.6245 60.7255 77.8528C60.2031 78.6139 59.6372 78.1953 59.6372 77.0918V75.9503H63.555H67.4728V77.0918ZM76.8319 76.4449C77.4414 76.8635 77.5719 77.2821 77.3543 78.1573C77.1802 78.8041 77.2672 79.451 77.4849 79.5652C78.312 80.0218 77.9637 81.9624 76.9625 82.5713C75.6566 83.3704 70.9553 83.4084 70.9553 82.6474C70.9553 82.343 71.1729 81.9624 71.3906 81.8483C72.0435 81.5058 71.9129 78.1192 71.1729 77.244C70.8247 76.7874 70.6941 76.3308 70.8247 76.1786C71.347 75.7219 76.0048 75.9503 76.8319 76.4449ZM85.5381 76.9015C86.3652 77.5865 86.6264 78.2334 86.6264 79.5652C86.6264 81.9624 85.2769 83.1801 82.578 83.1801C79.6614 83.1801 78.5732 82.2288 78.5732 79.7554C78.5732 78.0812 78.7473 77.6626 79.792 76.8635C81.4897 75.6078 84.1016 75.6078 85.5381 76.9015ZM94.2443 76.9015C95.0713 77.5865 95.3325 78.2334 95.3325 79.5652C95.3325 81.9244 93.9395 83.1801 91.4147 83.1801C89.0206 83.1801 88.1064 82.6854 87.497 81.0872C86.8875 79.451 87.5405 77.3962 88.9335 76.521C90.4135 75.6078 93.0254 75.798 94.2443 76.9015ZM102.21 76.8635C102.472 78.005 101.644 78.3856 100.382 77.6245C99.555 77.206 99.0762 77.0918 98.7715 77.3582C98.4667 77.6245 98.9021 78.1192 100.208 78.8802C103.603 80.8589 102.689 83.1801 98.5103 83.1801C96.2467 83.1801 96.2031 83.1801 96.2031 82.0385C96.2031 80.7828 96.769 80.5926 97.8138 81.4678C98.5103 82.1146 99.6856 82.1146 99.7727 81.4678C99.7727 81.2395 99.3809 80.897 98.8585 80.6687C96.2031 79.4891 95.5502 78.0431 97.1173 76.6732C98.2926 75.6458 101.993 75.76 102.21 76.8635ZM111.004 77.0918C111.004 78.2334 110.089 78.69 109.48 77.8528C109.349 77.6245 108.914 77.4723 108.566 77.4723C107.695 77.4723 107.695 81.3917 108.609 82.0385C109.741 82.8757 109.306 83.1801 107.086 83.1801C105.432 83.1801 104.909 83.0279 104.909 82.6093C104.909 82.3049 105.127 82.0385 105.345 82.0385C105.606 82.0385 105.78 81.0111 105.78 79.7554C105.78 78.005 105.649 77.4723 105.17 77.4723C104.822 77.4723 104.387 77.6245 104.256 77.8528C103.734 78.6139 103.168 78.1953 103.168 77.0918V75.9503H107.086H111.004V77.0918ZM104.605 84.588C104.3 84.6641 103.778 84.6641 103.516 84.588C103.212 84.4739 103.429 84.3977 104.039 84.3977C104.648 84.3977 104.866 84.4739 104.605 84.588Z" fill="black"/>
<path d="M46.7064 63.0109C45.3979 63.3254 45.0054 67.3362 46.0522 69.6169C46.75 71.1111 47.8841 71.7796 49.6724 71.7796C51.8969 71.7796 52.2022 71.3077 52.2022 67.8081C52.2022 64.8197 52.1149 64.5837 50.9809 63.6793C49.8468 62.8143 48.4511 62.5783 46.7064 63.0109Z" fill="black"/>
<path d="M53.1527 77.3175C52.3163 77.4919 52.0653 79.7162 52.7345 80.9809C53.1806 81.8096 53.9054 82.1803 55.0485 82.1803C56.4704 82.1803 56.6656 81.9186 56.6656 79.9778C56.6656 78.3206 56.6098 78.1897 55.8849 77.6882C55.1601 77.2084 54.2679 77.0776 53.1527 77.3175Z" fill="black"/>
<path d="M80.7494 77.6981C79.9129 77.8445 79.662 79.7115 80.3312 80.7731C80.7772 81.4686 81.5021 81.7798 82.6452 81.7798C84.0671 81.7798 84.2623 81.5601 84.2623 79.9311C84.2623 78.5401 84.2065 78.4303 83.4816 78.0093C82.7567 77.6066 81.8646 77.4968 80.7494 77.6981Z" fill="black"/>
<path d="M89.679 77.6981C88.8426 77.8445 88.5917 79.7115 89.2608 80.7731C89.7069 81.4686 90.4318 81.7798 91.5749 81.7798C92.9968 81.7798 93.192 81.5601 93.192 79.9311C93.192 78.5401 93.1362 78.4303 92.4113 78.0093C91.6864 77.6066 90.7943 77.4968 89.679 77.6981Z" fill="black"/>
<path d="M118.095 57C118.095 41.8827 113.328 27.3845 104.841 16.6949C96.3553 6.00534 84.8456 1.14133e-06 72.8444 0C60.8432 -1.14133e-06 49.3335 6.00534 40.8474 16.6949C32.3612 27.3845 27.5938 41.8827 27.5938 57L72.8444 57H118.095Z" fill="white"/>
<path d="M62.3499 8.09643C62.6085 11.8667 62.3499 11.8667 60.8846 8.21549C60.3675 6.86615 59.8503 5.79461 59.7641 5.87398C59.6779 5.95335 59.8934 7.50113 60.2382 9.36641C60.583 11.192 60.8846 12.7795 60.8415 12.8985C60.8415 13.0176 60.0658 11.7476 59.1608 10.1205C57.437 7.06458 57.006 6.86615 57.9972 9.56484C59.4194 13.2557 59.247 13.5732 57.3939 10.9936C56.4027 9.64421 55.4977 8.57267 55.4115 8.65205C55.3253 8.73142 55.67 9.6839 56.1441 10.7554L57.0491 12.7001L55.67 11.5095L54.291 10.3189L55.4977 12.3032C56.7043 14.3669 56.6181 14.3272 53.8169 11.192C52.9119 10.1601 52.0931 9.36641 52.0069 9.44578C51.9207 9.52515 52.3086 10.7158 52.9119 12.1048C53.5152 13.4938 53.9893 14.7241 53.9893 14.8035C53.9893 14.8829 53.2136 14.3272 52.2655 13.5335C49.8521 11.5492 49.7228 11.7476 51.8776 14.1685C53.9031 16.4703 53.0843 15.9544 49.1626 12.5413C46.7923 10.4776 46.5768 10.6364 48.3006 13.0176C50.24 15.6369 50.3261 15.9544 48.8178 14.6844L47.4387 13.4938L48.6023 15.6766C49.9383 18.0975 50.0245 18.1372 46.4906 15.2797L45.2408 14.2876L46.5337 16.0735C48.6885 19.05 48.6023 19.169 46.0166 16.5497C44.6375 15.2003 43.4308 14.1288 43.3446 14.2479C43.2153 14.3272 43.9049 15.4782 44.8099 16.7481C47.3956 20.2802 47.4387 20.3993 45.0254 18.0578L42.7413 15.875L43.8618 17.9387C45.1977 20.5184 45.1977 20.6771 43.7756 19.8437L42.6551 19.1293L43.6463 20.4787L44.6806 21.828L43.6032 21.0343C43.0429 20.5977 42.0517 19.804 41.4053 19.2881C39.8538 18.0181 39.8969 18.4547 41.4053 20.5581C43.4739 23.3361 43.4739 23.4155 41.6639 22.4233L39.9831 21.5105L41.707 23.1377C42.612 24.0505 43.2584 24.8045 43.0429 24.8045C42.8706 24.8045 41.4484 24.1299 39.8538 23.3361C36.4493 21.5899 36.6648 22.1058 40.4141 24.6458C41.9655 25.6776 43.1291 26.5904 43.086 26.6698C42.9998 26.7095 41.8794 26.4317 40.5865 25.9554L38.2593 25.1617L39.3367 25.9951L40.4141 26.8285L38.7334 26.1936C36.4493 25.3601 36.4062 25.4395 38.3024 26.8285C40.5434 28.4557 40.5865 28.4954 39.1643 27.9795C37.1819 27.3048 37.4405 27.7413 39.8538 29.2891C41.1036 30.1225 42.0086 30.7575 41.8794 30.7575C41.7932 30.7575 40.1555 30.321 38.3024 29.7654C36.4062 29.2097 34.8116 28.8129 34.7254 28.8923C34.6392 28.9716 35.7166 29.6066 37.0526 30.321C38.4317 31.0353 39.1643 31.5116 38.6903 31.3925C38.2162 31.3131 37.3543 31.1147 36.7509 30.9956C36.1476 30.8369 37.1388 31.4322 38.9057 32.3053C40.6727 33.1784 41.9655 33.8928 41.707 33.8928C41.4915 33.9325 39.6384 33.6547 37.656 33.3372C35.6305 33.0197 33.9497 32.8212 33.8635 32.9006C33.7773 32.98 34.9409 33.4562 36.4062 33.9721L39.1212 34.9246L37.1819 35.1231L35.2426 35.3612L36.6217 35.6787C38.8195 36.1549 38.7334 36.7105 36.4493 36.7502L34.3807 36.7899L36.5355 37.3058C37.7422 37.5836 38.6041 37.8614 38.4748 37.9011C38.3455 37.9408 36.9233 38.298 35.2426 38.6949L32.2259 39.4092L35.0271 39.4886C37.5267 39.568 37.656 39.6077 36.1907 39.8855C33.7773 40.2823 33.7342 40.6792 36.1045 40.6792C38.8195 40.6792 38.3886 40.9967 34.7685 41.6317L31.7949 42.1873L35.1564 42.227C37.0095 42.2667 38.4317 42.4254 38.3024 42.6238C38.1731 42.8223 36.6648 43.2985 34.9409 43.6954L31.7949 44.4494L35.4581 44.5685L39.1212 44.7272L37.1819 45.4416L35.2426 46.1956L38.0438 46.2353L40.8451 46.275L36.7509 47.8625C34.51 48.7356 33.1309 49.3706 33.7342 49.2515C34.3376 49.1721 36.1907 48.9737 37.8283 48.815C40.7589 48.5768 40.802 48.6165 39.6384 49.2118C37.7422 50.204 38.4748 50.2834 41.1898 49.45C43.7756 48.6165 44.2496 48.815 42.7844 50.0056C41.276 51.2755 42.2241 51.1565 43.9911 49.8468C46.1889 48.2594 46.5337 48.299 45.327 49.8865C44.4651 51.0374 44.422 51.1168 45.1546 50.6406C45.6287 50.3231 46.5337 49.6087 47.2232 49.0531C48.5592 47.9419 48.6885 48.1403 47.6973 49.9262L46.9647 51.1962L47.999 50.4024C48.5592 49.9659 49.6797 49.0928 50.4554 48.4181C51.5328 47.5053 51.7914 47.4259 51.5759 48.0212C51.2743 48.7356 51.3174 48.7356 52.8688 47.9022C54.8512 46.8306 55.0236 46.8306 54.4203 47.8625C53.386 49.6087 53.86 49.3706 59.5487 45.2829C60.0227 44.9257 60.1089 45.005 59.8503 45.7591C59.4194 46.91 60.0658 46.8703 61.3587 45.6003C61.9189 45.0447 62.7378 44.4097 63.1687 44.1716C63.8582 43.8541 63.9444 43.8938 63.6859 44.6479C63.4273 45.3622 64.0737 45.0844 66.7457 43.2588C68.6419 41.9889 70.4088 40.7586 70.7536 40.5205C71.1414 40.2426 71.0984 40.5205 70.5812 41.2745L69.7624 42.4651L71.4431 41.0761C72.3481 40.322 73.3824 39.4886 73.641 39.2505C74.0289 38.933 74.1151 38.2583 73.9427 37.3852C73.7703 36.393 73.9858 35.4406 74.6322 34.25C76.6577 30.3607 81.6568 30.0432 82.174 33.7737C82.3464 34.8849 82.3033 34.9246 80.7518 34.8056C79.3297 34.6865 78.9849 34.8849 76.9163 36.8693L74.6753 39.0917H76.356C78.8987 39.0917 80.2778 38.4964 80.2778 37.3852C80.2778 36.0359 80.9673 35.5993 82.9066 35.7977C84.6305 35.9962 84.9752 35.6787 84.0702 34.7659C83.51 34.2103 83.5962 34.2103 86.9576 34.9643C87.8195 35.1627 87.9919 35.0834 87.7765 34.5674C87.4317 33.7737 87.6041 33.7737 89.802 34.5674C91.1379 35.0834 91.6551 35.1231 91.8706 34.7659C92.1291 34.4087 92.3446 34.4484 92.7756 34.9246C93.2927 35.5199 93.422 35.4406 94.1115 34.25L94.8442 32.9403L95.5768 34.6468L96.3525 36.3533L97.3437 35.4802L98.378 34.6071V35.6787C98.378 36.6708 98.5073 36.7502 99.3692 36.5518C102.3 35.7977 102.17 35.7977 101.912 36.909L101.696 37.9805L103.506 37.1471C105.403 36.2343 105.661 36.393 104.584 37.8614C103.722 38.9727 104.024 39.2505 106.652 39.8458C109.281 40.4014 109.669 40.3617 108.075 39.687L106.782 39.1711L108.85 39.1314C111.221 39.0917 111.608 38.298 109.281 38.2583C107.816 38.2186 107.773 38.1789 108.721 37.9011C109.324 37.7424 110.79 37.5439 111.953 37.5043L114.108 37.4249L111.307 36.9486L108.506 36.4327L111.005 36.1549C114.324 35.7184 114.539 35.1231 111.436 35.0834L108.937 35.0437L110.876 34.5278L112.815 34.0118L110.014 33.9325L107.213 33.8928L110.445 32.7022L113.677 31.5513L110.445 31.7497L107.213 31.9481L109.885 30.8766C111.393 30.321 112.513 29.7654 112.427 29.686C112.341 29.6066 111.134 29.7257 109.755 29.9241C108.333 30.1225 107.17 30.2416 107.083 30.1622C106.997 30.1225 107.601 29.686 108.376 29.2097C109.928 28.297 109.712 28.1779 107.428 28.7732L105.92 29.1304L107.385 28.0588C110.833 25.5586 110.876 25.5189 108.161 26.4317C106.782 26.8682 105.532 27.146 105.403 27.027C105.23 26.9079 105.575 26.3523 106.135 25.7967C107.385 24.5664 106.954 24.5267 104.929 25.6776C103.248 26.6301 103.334 26.3523 105.446 23.8124L106.739 22.2249L105.489 23.2171C104.756 23.7727 104.067 24.368 103.894 24.6061C103.248 25.3998 103.593 24.3283 104.325 23.2964L105.058 22.2249L103.593 23.2171C100.49 25.3601 100.231 25.4792 101.395 24.2092C101.955 23.5346 103.032 22.4233 103.722 21.709C104.455 21.0343 104.886 20.439 104.713 20.439C104.541 20.439 103.205 20.9946 101.783 21.6693C100.317 22.344 99.0676 22.7805 98.9814 22.7011C98.8521 22.5821 99.8433 21.6693 101.179 20.6374C102.472 19.6056 103.506 18.6928 103.42 18.6134C103.334 18.534 102.041 18.8912 100.533 19.4468C99.0245 20.0024 97.7316 20.3596 97.6454 20.2802C97.5592 20.2009 98.378 19.4468 99.4554 18.6531C100.533 17.8197 101.352 17.0656 101.265 16.9862C101.136 16.9069 100.059 17.1847 98.8521 17.6609C95.9216 18.7325 95.4475 18.6531 96.6973 17.4228L97.7316 16.3513L96.3525 17.0259C95.6199 17.3831 94.8442 17.8197 94.7149 18.0578C94.5856 18.2562 94.2408 18.4547 93.9823 18.4547C93.7237 18.4547 94.4563 17.4228 95.6199 16.1528C97.7747 13.8113 97.7316 13.8113 94.5425 16.0735C93.0341 17.145 92.7756 17.2244 93.1634 16.5497C93.422 16.1131 93.853 15.5972 94.0685 15.4782C94.327 15.3591 94.4994 15.0416 94.4994 14.7638C94.4994 14.5257 93.6806 15.0813 92.6463 15.9941C89.3279 18.9706 89.7158 18.1768 94.1546 12.7001C94.9304 11.7476 94.5425 11.946 92.2584 13.5732C90.6639 14.7241 89.2417 15.6766 89.0693 15.6766C88.94 15.6766 89.3279 14.8432 89.9743 13.7716L91.181 11.9064L89.3279 13.4938L87.5179 15.0813L88.2074 13.8113C89.2417 11.9064 89.0262 11.7079 87.7765 13.4144C86.3112 15.3988 86.0526 15.0813 87.1731 12.6604C87.6472 11.5492 87.7334 11.0729 87.3886 11.5095C85.5786 13.851 85.4493 13.8907 86.3112 11.7476C86.8283 10.557 87.4317 9.24734 87.6472 8.81079C88.6815 7.06458 87.13 8.69173 85.6648 10.9142C84.8028 12.2238 84.0271 13.2954 83.9409 13.2954C83.8547 13.2954 84.0702 12.3826 84.3719 11.2317L84.9752 9.20766L83.7254 10.557L82.4757 11.9064L83.2945 9.80296C83.7254 8.69173 84.0271 7.73925 83.984 7.73925C83.8978 7.73925 83.1221 8.73142 82.2602 9.92202C81.3983 11.1126 80.5794 12.1048 80.4502 12.1048C80.3209 12.1048 80.3209 11.9857 80.4071 11.7873C80.8811 11.1126 83.7254 5.27868 83.7254 5.04056C83.7254 4.9215 82.8204 5.59617 81.6999 6.58834C80.5364 7.54082 79.1573 8.73142 78.597 9.12829C77.5627 9.92202 77.5627 9.92202 78.7694 7.73925C80.1485 5.19931 79.7606 5.43742 77.2611 8.73142L75.451 11.1126L75.7096 9.12829C75.882 8.01706 76.0975 6.58834 76.2268 5.95335C76.356 5.15962 75.9251 5.71523 74.977 7.54082L73.4686 10.3189L73.3393 8.53299L73.167 6.74709L72.305 9.12829C71.831 10.4379 71.4431 11.2317 71.3569 10.9142C71.3138 10.5967 71.1414 9.04891 70.9691 7.54082L70.6674 4.76275L69.8917 7.34238C69.3314 9.32672 69.159 9.64421 69.0728 8.73142C69.0298 7.69957 68.9436 7.65988 68.6419 8.33455C68.4264 8.77111 68.254 9.64421 68.2109 10.3189C68.1678 11.3507 68.0816 11.3904 67.78 10.7158C67.5645 10.2792 67.3921 9.24734 67.3921 8.45361C67.349 7.65988 67.2197 6.66771 67.0473 6.27084C66.8319 5.71523 66.6164 5.99304 66.2716 7.34238L65.7976 9.12829L65.108 7.34238L64.4185 5.55648L64.3323 7.54082L64.2892 9.52515L63.5997 7.54082C62.5223 4.16745 62.0482 4.36588 62.3499 8.09643Z" fill="black"/>
<path d="M86.3101 39.7663C84.3708 40.4012 84.0691 42.7824 85.5774 45.243C86.1377 46.1161 86.6979 47.148 86.8703 47.5448C87.1289 48.1401 87.0427 48.1798 86.267 47.8227C85.3189 47.3464 84.1553 47.902 84.1553 48.8148C84.1553 49.4498 87.172 51.9501 90.4042 53.9741C92.3004 55.2044 93.1192 55.4822 94.9723 55.5219C97.2133 55.5616 97.2133 55.5616 98.2476 53.7757C98.8079 52.7835 99.5836 51.7516 99.9715 51.4738C100.359 51.2357 100.532 50.9976 100.316 50.9976C100.101 50.9976 100.359 50.7198 100.876 50.3626C101.911 49.7276 102.169 48.3783 101.307 48.1005C100.876 47.9814 100.92 47.7433 101.437 47.1877C102.126 46.3939 103.635 43.0603 103.247 43.0603C102.643 43.0603 101.868 44.2905 102.083 44.9255C102.256 45.4415 102.212 45.4811 101.954 45.124C101.652 44.7271 101.307 44.8858 100.489 45.7589C99.4112 46.9495 97.6443 47.5845 96.4807 47.1877C96.1359 47.0686 95.2309 46.0764 94.4552 45.0049C93.7226 43.9334 92.9468 43.1793 92.7314 43.2984C92.5159 43.4174 92.4728 43.2587 92.559 42.9809C92.8175 42.3856 91.3523 41.0362 89.3699 40.1234C88.0339 39.4488 87.4306 39.4091 86.3101 39.7663ZM90.9644 44.5683C91.0506 44.8462 90.8351 45.0446 90.4473 45.0446C90.0594 45.0446 89.7577 44.7668 89.7577 44.4096C89.7577 43.7349 90.7058 43.854 90.9644 44.5683Z" fill="#707070"/>
<path d="M76.8281 51.1556C76.8281 51.8303 78.3796 54.4496 79.2415 55.2434C80.1896 56.1165 80.7498 56.2752 83.1632 56.2752C85.4473 56.3149 86.0937 56.1562 86.5678 55.5608C86.9126 55.164 87.1711 54.6877 87.1711 54.4893C87.1711 54.0528 85.6628 54.0924 84.4561 54.6084C83.2063 55.1243 80.8791 54.1718 78.6812 52.2272C77.4315 51.1159 76.8281 50.7588 76.8281 51.1556Z" fill="#707070"/>
<ellipse cx="90.4594" cy="44.6478" rx="1.13127" ry="0.89295" fill="black"/>
<path d="M56.3591 54.0139C58.8155 55.8395 65.6247 57.3476 68.9 56.792C70.8393 56.4348 72.951 54.6886 72.046 54.133C71.3995 53.7361 70.4945 53.8552 66.0556 54.8474C62.8665 55.522 60.4532 55.3633 57.5226 54.1727C56.0143 53.5774 55.7126 53.5377 56.3591 54.0139Z" fill="#707070"/>
<ellipse cx="102.094" cy="44.796" rx="0.484829" ry="0.744126" fill="black"/>
<ellipse cx="90.4624" cy="44.2013" rx="0.484829" ry="0.446475" fill="#D9D9D9"/>
<ellipse cx="95.6302" cy="54.6187" rx="1.7777" ry="1.04178" fill="black"/>
<ellipse cx="101.933" cy="44.6476" rx="0.323219" ry="0.29765" fill="#D9D9D9"/>
</svg>
