<svg width="108" height="85" viewBox="0 0 108 85" fill="none" xmlns="http://www.w3.org/2000/svg">
<mask id="path-1-inside-1_282_97" fill="white">
<path d="M25.8112 42.5082C23.1994 42.6431 17.0846 42.751 12.2296 42.724H3.38004L3.16495 43.4256C3.04204 43.9383 3.10349 44.2351 3.47222 44.424C3.90241 44.6669 3.90241 44.7209 3.47222 45.0177C3.19568 45.1796 2.98058 45.7193 2.98058 46.205C2.98058 46.9066 2.82694 47.1224 2.08948 47.3383C1.16765 47.6351 0.860374 48.6336 1.69002 48.6336C1.93584 48.6336 2.15094 48.7415 2.15094 48.9034C2.15094 49.0383 2.36603 49.1732 2.61185 49.1732C2.8884 49.1732 2.98058 49.3351 2.8884 49.578C2.76549 49.7939 2.85767 50.0097 3.04204 50.0097C3.2264 50.0367 3.53368 50.0907 3.68732 50.1177C3.87168 50.1447 4.20969 50.1986 4.48624 50.2256C4.73206 50.2256 4.85497 50.3605 4.76279 50.5224C4.6706 50.6574 4.73206 50.7923 4.8857 50.7923C5.62316 50.7923 5.16225 51.3589 4.08678 51.7637C3.2264 52.0875 3.07276 52.2494 3.4415 52.3304C3.93314 52.4383 3.93314 52.4923 3.53368 52.8701C3.19568 53.1669 3.13422 53.3828 3.38004 53.6256C3.62586 53.8685 3.34931 54.0304 2.24312 54.3002C0.0614552 54.7859 0 54.8129 0 55.0558C0 55.2986 2.48894 56.4589 3.04204 56.4589C3.2264 56.4589 3.38004 56.6209 3.38004 56.8367C3.38004 57.0526 3.59514 57.2955 3.87168 57.3764C4.11751 57.4574 4.24042 57.6462 4.14823 57.8082C4.05605 57.9431 4.24042 58.078 4.54769 58.078C4.8857 58.078 5.2237 58.3209 5.31588 58.6177C5.40807 58.9415 6.08407 59.4002 6.97518 59.751C8.4501 60.3177 9.27975 60.9923 9.03393 61.3701C8.94175 61.505 9.09538 61.5859 9.40266 61.5859C9.67921 61.5859 10.0787 61.8018 10.2938 62.0447C10.6318 62.4494 10.8776 62.4764 12.1681 62.1796C13.1514 61.9907 16.8695 61.8558 22.5848 61.8558C27.5012 61.8288 33.0937 61.8018 35.0295 61.7748C36.9654 61.7478 43.1724 61.8288 48.8262 61.9637C56.7847 62.1256 59.0278 62.0986 58.8435 61.8558C58.7205 61.6669 58.9664 61.7208 59.3658 61.9637C60.0418 62.3685 62.1006 62.4224 77.618 62.4764C91.4762 62.5304 95.2864 62.4494 96.0546 62.1796C96.6077 61.9637 97.2837 61.3701 97.6832 60.7494C98.2056 59.9399 98.5743 59.697 99.1889 59.6701C100.572 59.6431 103.03 58.2939 103.706 57.2145C104.167 56.432 104.535 56.2161 105.457 56.0812C106.103 55.9732 106.625 55.7843 106.625 55.6494C106.625 55.4875 106.84 55.3796 107.117 55.3796C107.362 55.3796 107.516 55.2716 107.393 55.1367C107.301 54.9748 107.424 54.7589 107.7 54.651C108.1 54.4351 108.1 54.3542 107.7 53.8415C107.455 53.5177 106.84 53.1939 106.348 53.0859C105.703 52.978 105.488 52.7891 105.611 52.5193C105.703 52.3034 105.611 51.9526 105.396 51.7367C104.966 51.305 105.211 51.1431 106.625 51.0082C107.793 50.8732 107.67 49.8748 106.471 49.7669C105.334 49.6589 104.812 49.2542 105.488 49.0113C106.072 48.8224 106.225 47.4193 105.703 47.1494C105.457 47.0145 105.488 46.8256 105.765 46.5558C105.98 46.3129 106.195 45.8542 106.225 45.5574C106.256 45.2336 106.379 44.6129 106.502 44.1542C106.656 43.3717 106.594 43.2907 105.703 42.9939C105.15 42.832 103.798 42.6431 102.692 42.5891C101.371 42.5082 101.002 42.5351 101.709 42.6431C102.753 42.859 102.753 42.859 101.063 43.0478C99.281 43.2637 96.2697 43.0478 95.7166 42.697C95.2864 42.4002 88.342 42.3463 59.6116 42.4272C45.9993 42.4812 33.9233 42.4542 32.7249 42.3732C31.5573 42.3193 28.4231 42.3732 25.8112 42.5082ZM36.5352 44.0732C38.5939 44.451 39.823 45.5574 40.2532 47.4463C40.837 49.9288 39.8845 52.4383 37.9794 53.4637C35.8592 54.624 32.4791 54.4621 30.7584 53.1129C28.3923 51.251 28.7611 46.4478 31.4037 44.7748C32.0797 44.3161 33.0322 44.0732 34.7837 43.8034C34.9066 43.8034 35.7055 43.9113 36.5352 44.0732ZM22.7385 44.8288C22.7385 45.3145 22.5541 45.6653 22.2775 45.7193C21.9395 45.7732 22.001 46.0701 22.7077 47.0955L23.5681 48.3907L24.3056 47.1494C24.9816 45.9891 25.0123 45.8812 24.5207 45.6383C24.2134 45.4764 23.9676 45.0716 23.9676 44.7209C23.9676 44.0732 24.029 44.0463 26.1185 44.0463H28.2694V44.8288C28.2694 45.2605 28.1465 45.6653 27.9929 45.7193C27.8393 45.7463 27.0096 46.6907 26.1492 47.797C24.8894 49.4431 24.5821 50.0097 24.5821 50.9542C24.5821 51.8447 24.7358 52.1685 25.3196 52.5193C25.7498 52.7621 26.057 53.1669 26.0263 53.4907C25.9956 53.9764 25.7805 54.0304 23.1379 54.0304H20.2802V53.2478C20.2802 52.7082 20.4646 52.4383 20.8948 52.3304C21.3557 52.2224 21.5094 51.9526 21.5094 51.224C21.5094 50.4955 21.0484 49.578 19.6657 47.6621C17.146 44.1812 17.1768 44.0463 20.2802 44.0463H22.7385V44.8288ZM50.5163 44.478C50.885 45.3145 50.6699 45.7193 48.0888 48.7415C46.6446 50.4145 45.4769 51.8447 45.4769 51.9256C45.4769 52.0066 46.1222 52.0066 46.9518 51.9526C47.9659 51.8447 48.5804 51.6288 49.0106 51.1701C49.4408 50.7113 49.8403 50.5764 50.3319 50.6843C51.0694 50.8732 51.1001 50.9542 50.8235 52.7891L50.6084 54.0304H46.0607H41.4823V53.005C41.4823 52.1685 41.9125 51.5209 43.9098 49.1732L46.3373 46.3399L45.4155 46.259C44.7395 46.178 44.2478 46.3669 43.664 46.8526C43.1109 47.3113 42.65 47.5002 42.1891 47.3923C41.636 47.2574 41.5438 47.0955 41.6667 46.259C42.0354 43.8304 41.6052 44.0463 46.2144 44.0463C49.6866 44.0463 50.3626 44.1002 50.5163 44.478ZM57.1534 44.8288C57.1534 45.3685 56.9691 45.6383 56.5389 45.7463C56.0472 45.8542 55.9243 46.124 55.9243 47.0145V48.1209L57.7065 48.0399L59.458 47.959L59.5502 46.9605C59.6116 46.178 59.5195 45.9082 58.9971 45.6653C58.5669 45.4764 58.3825 45.1526 58.444 44.7748C58.5362 44.2351 58.7205 44.1812 61.0251 44.1002L63.5448 44.0193L63.6677 44.8288C63.7599 45.4494 63.6677 45.6923 63.2375 45.8272C62.7459 45.9621 62.6844 46.3129 62.6844 49.0113C62.6844 51.7637 62.7459 52.1145 63.299 52.4383C63.7291 52.7082 63.8521 53.005 63.7291 53.4097C63.5448 53.9764 63.3604 54.0304 61.148 54.0304C58.8434 54.0304 58.7513 54.0034 58.5976 53.3558C58.5054 52.8701 58.6284 52.5732 59.0278 52.3843C59.458 52.1955 59.6116 51.8177 59.6116 51.0621V49.9828H57.768H55.9243V51.0621C55.9243 51.8447 56.078 52.1955 56.5389 52.4113C56.9076 52.5732 57.1534 52.978 57.1534 53.3558C57.1534 54.0304 57.1227 54.0304 54.5723 54.0304C52.0526 54.0304 51.9912 54.0034 51.8375 53.3558C51.7454 52.8701 51.8683 52.5732 52.2677 52.3843C52.7901 52.1415 52.8516 51.7637 52.8516 49.1463C52.8516 46.4209 52.7901 46.124 52.2063 45.6923C51.7146 45.3685 51.5917 45.0717 51.7454 44.6399C51.9605 44.1002 52.1756 44.0463 54.5723 44.0463H57.1534V44.8288ZM69.5674 44.6399C69.6903 45.0447 69.5674 45.3685 69.2294 45.6113C68.7378 45.9082 68.7685 46.0161 69.3523 46.9336C69.721 47.5002 70.1512 47.9859 70.2741 48.0129C70.4278 48.0669 70.858 47.6351 71.2267 47.0415C71.9334 45.9621 71.9334 45.9621 71.2881 45.6653C70.9194 45.5034 70.6736 45.0986 70.6736 44.7209C70.6736 44.0732 70.7351 44.0463 72.7938 44.0463C74.7296 44.0463 74.914 44.1002 75.0676 44.6399C75.1906 45.0717 75.0369 45.4764 74.5453 45.9351C72.9167 47.5002 71.2881 49.9558 71.2881 50.9002C71.2881 51.7907 71.9027 52.6812 72.548 52.6812C72.7016 52.6812 72.8245 52.978 72.8245 53.3558C72.8245 54.0304 72.8245 54.0304 69.9054 54.0304H66.9863V53.2209C66.9863 52.6002 67.1092 52.4113 67.6008 52.4113C68.1232 52.4113 68.2154 52.2224 68.2154 51.251C68.2154 50.3605 67.9081 49.6589 66.8019 48.0939C66.003 46.9875 65.1733 45.8812 64.9583 45.6383C64.7124 45.4224 64.5281 44.9637 64.5281 44.6399C64.5281 44.0732 64.6817 44.0463 66.9555 44.0463C69.1987 44.0463 69.383 44.1002 69.5674 44.6399ZM81.121 44.2351C81.121 44.3701 81.2132 44.7209 81.3054 45.0177C81.4283 45.4494 81.3054 45.6383 80.8444 45.7463C80.2914 45.8542 80.1992 46.097 80.1992 47.2034V48.4986L81.5819 47.2574C82.811 46.124 82.9339 45.9082 82.7496 45.0177L82.5652 44.0463H84.6239C86.5291 44.0463 86.652 44.0732 86.652 44.6399C86.6212 45.0177 85.8531 45.9891 84.839 46.9875L83.0261 48.7415L84.9927 50.9812C87.4509 53.7605 87.4816 54.0843 85.3614 53.9764C83.7636 53.8955 83.7636 53.8955 82.0428 51.9256L80.3528 49.9558L80.2606 50.9812C80.1684 51.7637 80.2914 52.1145 80.783 52.4383C81.1517 52.7082 81.4283 53.1669 81.4283 53.4637C81.4283 54.0034 81.2746 54.0304 78.6628 54.0304H75.8973V53.2478C75.8973 52.7082 76.0817 52.4383 76.5118 52.3304C77.0649 52.1955 77.1264 51.9526 77.1264 49.2002C77.1264 46.5018 77.0649 46.178 76.5118 45.8812C76.1431 45.6653 75.8973 45.2336 75.8973 44.8018V44.0463H78.5091C79.9533 44.0463 81.121 44.1272 81.121 44.2351ZM28.7611 56.324C28.6382 56.7018 28.7304 57.5113 28.9147 58.105C29.4371 59.5621 29.9287 59.0494 29.9287 57.1336V55.6494H31.0964C31.926 55.6494 32.264 55.7574 32.264 56.0542C32.264 56.2701 32.1411 56.4589 31.9875 56.4589C31.7417 56.4589 32.3869 58.8066 32.6942 59.0764C32.7557 59.1304 33.0322 58.6447 33.278 57.9701C33.5546 57.2415 33.6468 56.6748 33.4624 56.5939C32.7557 56.1891 33.2166 55.6494 34.2613 55.6494C34.8452 55.6494 35.3368 55.7843 35.3368 55.9462C35.3368 56.1082 34.8759 57.2415 34.3535 58.4828C33.4624 60.4256 33.2166 60.7494 32.5406 60.8304C31.8031 60.9383 31.6802 60.8304 31.3422 59.8589L30.9427 58.7526L30.4818 59.697C30.2053 60.2097 29.9902 60.6415 29.9595 60.6685C29.9595 60.6955 29.5907 60.7764 29.1298 60.8843C28.3309 61.0462 28.3002 60.9923 27.3783 58.4558C26.856 57.0526 26.4258 55.8383 26.4258 55.7574C26.4258 55.7034 26.9789 55.6494 27.6856 55.6494C28.884 55.6494 28.9454 55.6764 28.7611 56.324ZM40.5605 55.9193C41.4823 56.351 41.9125 58.132 41.3594 59.2653C40.837 60.3986 40.0689 60.7764 38.4403 60.7764C36.6581 60.7764 35.9514 60.0748 35.9514 58.3478C35.9514 56.5399 36.8732 55.6494 38.7168 55.6494C39.4236 55.6494 40.2532 55.7843 40.5605 55.9193ZM47.6279 56.4589C47.6279 57.2685 46.9826 57.5923 46.5524 56.9986C46.4602 56.8367 46.1529 56.7288 45.9071 56.7288C45.2926 56.7288 45.2926 59.5082 45.9378 59.9669C46.7368 60.5605 46.4295 60.7764 44.8624 60.7764C43.6947 60.7764 43.326 60.6685 43.326 60.3716C43.326 60.1558 43.4796 59.9669 43.6333 59.9669C43.8176 59.9669 43.9405 59.2383 43.9405 58.3478C43.9405 57.1066 43.8484 56.7288 43.5104 56.7288C43.2645 56.7288 42.9573 56.8367 42.8651 56.9986C42.4963 57.5383 42.0969 57.2415 42.0969 56.4589V55.6494H44.8624H47.6279V56.4589ZM54.2343 56.0002C54.6645 56.297 54.7567 56.5939 54.603 57.2145C54.4801 57.6732 54.5416 58.132 54.6952 58.2129C55.279 58.5367 55.0332 59.9129 54.3265 60.3447C53.4047 60.9113 50.0861 60.9383 50.0861 60.3986C50.0861 60.1828 50.2397 59.9129 50.3933 59.832C50.8543 59.5891 50.7621 57.1875 50.2397 56.5669C49.9939 56.2431 49.9017 55.9193 49.9939 55.8113C50.3626 55.4875 53.6505 55.6494 54.2343 56.0002ZM60.3798 56.324C60.9637 56.8097 61.148 57.2685 61.148 58.2129C61.148 59.9129 60.1955 60.7764 58.2903 60.7764C56.2316 60.7764 55.4634 60.1018 55.4634 58.3478C55.4634 57.1605 55.5863 56.8637 56.3238 56.297C57.5222 55.4066 59.3658 55.4066 60.3798 56.324ZM66.5254 56.324C67.1092 56.8097 67.2936 57.2685 67.2936 58.2129C67.2936 59.8859 66.3103 60.7764 64.5281 60.7764C62.838 60.7764 62.1928 60.4256 61.7626 59.2923C61.3324 58.132 61.7933 56.6748 62.7766 56.0542C63.8213 55.4066 65.665 55.5415 66.5254 56.324ZM72.1485 56.297C72.3329 57.1066 71.7491 57.3764 70.858 56.8367C70.2741 56.5399 69.9361 56.4589 69.721 56.6478C69.5059 56.8367 69.8132 57.1875 70.735 57.7272C73.1318 59.1304 72.4865 60.7764 69.5367 60.7764C67.9388 60.7764 67.9081 60.7764 67.9081 59.9669C67.9081 59.0764 68.3076 58.9415 69.045 59.5621C69.5367 60.0209 70.3663 60.0209 70.4278 59.5621C70.4278 59.4002 70.1512 59.1574 69.7825 58.9955C67.9081 58.1589 67.4472 57.1336 68.5534 56.1621C69.383 55.4336 71.9949 55.5145 72.1485 56.297ZM78.3555 56.4589C78.3555 57.2685 77.7102 57.5923 77.28 56.9986C77.1879 56.8367 76.8806 56.7288 76.6348 56.7288C76.0202 56.7288 76.0202 59.5082 76.6655 59.9669C77.4644 60.5605 77.1571 60.7764 75.59 60.7764C74.4224 60.7764 74.0536 60.6685 74.0536 60.3716C74.0536 60.1558 74.2073 59.9669 74.3609 59.9669C74.5453 59.9669 74.6682 59.2383 74.6682 58.3478C74.6682 57.1066 74.576 56.7288 74.238 56.7288C73.9922 56.7288 73.6849 56.8367 73.5927 56.9986C73.224 57.5383 72.8245 57.2415 72.8245 56.4589V55.6494H75.59H78.3555V56.4589ZM73.8385 61.7748C73.6235 61.8288 73.2547 61.8288 73.0703 61.7748C72.8553 61.6939 73.0089 61.6399 73.4391 61.6399C73.8693 61.6399 74.0229 61.6939 73.8385 61.7748Z"/>
</mask>
<path d="M25.8112 42.5082C23.1994 42.6431 17.0846 42.751 12.2296 42.724H3.38004L3.16495 43.4256C3.04204 43.9383 3.10349 44.2351 3.47222 44.424C3.90241 44.6669 3.90241 44.7209 3.47222 45.0177C3.19568 45.1796 2.98058 45.7193 2.98058 46.205C2.98058 46.9066 2.82694 47.1224 2.08948 47.3383C1.16765 47.6351 0.860374 48.6336 1.69002 48.6336C1.93584 48.6336 2.15094 48.7415 2.15094 48.9034C2.15094 49.0383 2.36603 49.1732 2.61185 49.1732C2.8884 49.1732 2.98058 49.3351 2.8884 49.578C2.76549 49.7939 2.85767 50.0097 3.04204 50.0097C3.2264 50.0367 3.53368 50.0907 3.68732 50.1177C3.87168 50.1447 4.20969 50.1986 4.48624 50.2256C4.73206 50.2256 4.85497 50.3605 4.76279 50.5224C4.6706 50.6574 4.73206 50.7923 4.8857 50.7923C5.62316 50.7923 5.16225 51.3589 4.08678 51.7637C3.2264 52.0875 3.07276 52.2494 3.4415 52.3304C3.93314 52.4383 3.93314 52.4923 3.53368 52.8701C3.19568 53.1669 3.13422 53.3828 3.38004 53.6256C3.62586 53.8685 3.34931 54.0304 2.24312 54.3002C0.0614552 54.7859 0 54.8129 0 55.0558C0 55.2986 2.48894 56.4589 3.04204 56.4589C3.2264 56.4589 3.38004 56.6209 3.38004 56.8367C3.38004 57.0526 3.59514 57.2955 3.87168 57.3764C4.11751 57.4574 4.24042 57.6462 4.14823 57.8082C4.05605 57.9431 4.24042 58.078 4.54769 58.078C4.8857 58.078 5.2237 58.3209 5.31588 58.6177C5.40807 58.9415 6.08407 59.4002 6.97518 59.751C8.4501 60.3177 9.27975 60.9923 9.03393 61.3701C8.94175 61.505 9.09538 61.5859 9.40266 61.5859C9.67921 61.5859 10.0787 61.8018 10.2938 62.0447C10.6318 62.4494 10.8776 62.4764 12.1681 62.1796C13.1514 61.9907 16.8695 61.8558 22.5848 61.8558C27.5012 61.8288 33.0937 61.8018 35.0295 61.7748C36.9654 61.7478 43.1724 61.8288 48.8262 61.9637C56.7847 62.1256 59.0278 62.0986 58.8435 61.8558C58.7205 61.6669 58.9664 61.7208 59.3658 61.9637C60.0418 62.3685 62.1006 62.4224 77.618 62.4764C91.4762 62.5304 95.2864 62.4494 96.0546 62.1796C96.6077 61.9637 97.2837 61.3701 97.6832 60.7494C98.2056 59.9399 98.5743 59.697 99.1889 59.6701C100.572 59.6431 103.03 58.2939 103.706 57.2145C104.167 56.432 104.535 56.2161 105.457 56.0812C106.103 55.9732 106.625 55.7843 106.625 55.6494C106.625 55.4875 106.84 55.3796 107.117 55.3796C107.362 55.3796 107.516 55.2716 107.393 55.1367C107.301 54.9748 107.424 54.7589 107.7 54.651C108.1 54.4351 108.1 54.3542 107.7 53.8415C107.455 53.5177 106.84 53.1939 106.348 53.0859C105.703 52.978 105.488 52.7891 105.611 52.5193C105.703 52.3034 105.611 51.9526 105.396 51.7367C104.966 51.305 105.211 51.1431 106.625 51.0082C107.793 50.8732 107.67 49.8748 106.471 49.7669C105.334 49.6589 104.812 49.2542 105.488 49.0113C106.072 48.8224 106.225 47.4193 105.703 47.1494C105.457 47.0145 105.488 46.8256 105.765 46.5558C105.98 46.3129 106.195 45.8542 106.225 45.5574C106.256 45.2336 106.379 44.6129 106.502 44.1542C106.656 43.3717 106.594 43.2907 105.703 42.9939C105.15 42.832 103.798 42.6431 102.692 42.5891C101.371 42.5082 101.002 42.5351 101.709 42.6431C102.753 42.859 102.753 42.859 101.063 43.0478C99.281 43.2637 96.2697 43.0478 95.7166 42.697C95.2864 42.4002 88.342 42.3463 59.6116 42.4272C45.9993 42.4812 33.9233 42.4542 32.7249 42.3732C31.5573 42.3193 28.4231 42.3732 25.8112 42.5082ZM36.5352 44.0732C38.5939 44.451 39.823 45.5574 40.2532 47.4463C40.837 49.9288 39.8845 52.4383 37.9794 53.4637C35.8592 54.624 32.4791 54.4621 30.7584 53.1129C28.3923 51.251 28.7611 46.4478 31.4037 44.7748C32.0797 44.3161 33.0322 44.0732 34.7837 43.8034C34.9066 43.8034 35.7055 43.9113 36.5352 44.0732ZM22.7385 44.8288C22.7385 45.3145 22.5541 45.6653 22.2775 45.7193C21.9395 45.7732 22.001 46.0701 22.7077 47.0955L23.5681 48.3907L24.3056 47.1494C24.9816 45.9891 25.0123 45.8812 24.5207 45.6383C24.2134 45.4764 23.9676 45.0716 23.9676 44.7209C23.9676 44.0732 24.029 44.0463 26.1185 44.0463H28.2694V44.8288C28.2694 45.2605 28.1465 45.6653 27.9929 45.7193C27.8393 45.7463 27.0096 46.6907 26.1492 47.797C24.8894 49.4431 24.5821 50.0097 24.5821 50.9542C24.5821 51.8447 24.7358 52.1685 25.3196 52.5193C25.7498 52.7621 26.057 53.1669 26.0263 53.4907C25.9956 53.9764 25.7805 54.0304 23.1379 54.0304H20.2802V53.2478C20.2802 52.7082 20.4646 52.4383 20.8948 52.3304C21.3557 52.2224 21.5094 51.9526 21.5094 51.224C21.5094 50.4955 21.0484 49.578 19.6657 47.6621C17.146 44.1812 17.1768 44.0463 20.2802 44.0463H22.7385V44.8288ZM50.5163 44.478C50.885 45.3145 50.6699 45.7193 48.0888 48.7415C46.6446 50.4145 45.4769 51.8447 45.4769 51.9256C45.4769 52.0066 46.1222 52.0066 46.9518 51.9526C47.9659 51.8447 48.5804 51.6288 49.0106 51.1701C49.4408 50.7113 49.8403 50.5764 50.3319 50.6843C51.0694 50.8732 51.1001 50.9542 50.8235 52.7891L50.6084 54.0304H46.0607H41.4823V53.005C41.4823 52.1685 41.9125 51.5209 43.9098 49.1732L46.3373 46.3399L45.4155 46.259C44.7395 46.178 44.2478 46.3669 43.664 46.8526C43.1109 47.3113 42.65 47.5002 42.1891 47.3923C41.636 47.2574 41.5438 47.0955 41.6667 46.259C42.0354 43.8304 41.6052 44.0463 46.2144 44.0463C49.6866 44.0463 50.3626 44.1002 50.5163 44.478ZM57.1534 44.8288C57.1534 45.3685 56.9691 45.6383 56.5389 45.7463C56.0472 45.8542 55.9243 46.124 55.9243 47.0145V48.1209L57.7065 48.0399L59.458 47.959L59.5502 46.9605C59.6116 46.178 59.5195 45.9082 58.9971 45.6653C58.5669 45.4764 58.3825 45.1526 58.444 44.7748C58.5362 44.2351 58.7205 44.1812 61.0251 44.1002L63.5448 44.0193L63.6677 44.8288C63.7599 45.4494 63.6677 45.6923 63.2375 45.8272C62.7459 45.9621 62.6844 46.3129 62.6844 49.0113C62.6844 51.7637 62.7459 52.1145 63.299 52.4383C63.7291 52.7082 63.8521 53.005 63.7291 53.4097C63.5448 53.9764 63.3604 54.0304 61.148 54.0304C58.8434 54.0304 58.7513 54.0034 58.5976 53.3558C58.5054 52.8701 58.6284 52.5732 59.0278 52.3843C59.458 52.1955 59.6116 51.8177 59.6116 51.0621V49.9828H57.768H55.9243V51.0621C55.9243 51.8447 56.078 52.1955 56.5389 52.4113C56.9076 52.5732 57.1534 52.978 57.1534 53.3558C57.1534 54.0304 57.1227 54.0304 54.5723 54.0304C52.0526 54.0304 51.9912 54.0034 51.8375 53.3558C51.7454 52.8701 51.8683 52.5732 52.2677 52.3843C52.7901 52.1415 52.8516 51.7637 52.8516 49.1463C52.8516 46.4209 52.7901 46.124 52.2063 45.6923C51.7146 45.3685 51.5917 45.0717 51.7454 44.6399C51.9605 44.1002 52.1756 44.0463 54.5723 44.0463H57.1534V44.8288ZM69.5674 44.6399C69.6903 45.0447 69.5674 45.3685 69.2294 45.6113C68.7378 45.9082 68.7685 46.0161 69.3523 46.9336C69.721 47.5002 70.1512 47.9859 70.2741 48.0129C70.4278 48.0669 70.858 47.6351 71.2267 47.0415C71.9334 45.9621 71.9334 45.9621 71.2881 45.6653C70.9194 45.5034 70.6736 45.0986 70.6736 44.7209C70.6736 44.0732 70.7351 44.0463 72.7938 44.0463C74.7296 44.0463 74.914 44.1002 75.0676 44.6399C75.1906 45.0717 75.0369 45.4764 74.5453 45.9351C72.9167 47.5002 71.2881 49.9558 71.2881 50.9002C71.2881 51.7907 71.9027 52.6812 72.548 52.6812C72.7016 52.6812 72.8245 52.978 72.8245 53.3558C72.8245 54.0304 72.8245 54.0304 69.9054 54.0304H66.9863V53.2209C66.9863 52.6002 67.1092 52.4113 67.6008 52.4113C68.1232 52.4113 68.2154 52.2224 68.2154 51.251C68.2154 50.3605 67.9081 49.6589 66.8019 48.0939C66.003 46.9875 65.1733 45.8812 64.9583 45.6383C64.7124 45.4224 64.5281 44.9637 64.5281 44.6399C64.5281 44.0732 64.6817 44.0463 66.9555 44.0463C69.1987 44.0463 69.383 44.1002 69.5674 44.6399ZM81.121 44.2351C81.121 44.3701 81.2132 44.7209 81.3054 45.0177C81.4283 45.4494 81.3054 45.6383 80.8444 45.7463C80.2914 45.8542 80.1992 46.097 80.1992 47.2034V48.4986L81.5819 47.2574C82.811 46.124 82.9339 45.9082 82.7496 45.0177L82.5652 44.0463H84.6239C86.5291 44.0463 86.652 44.0732 86.652 44.6399C86.6212 45.0177 85.8531 45.9891 84.839 46.9875L83.0261 48.7415L84.9927 50.9812C87.4509 53.7605 87.4816 54.0843 85.3614 53.9764C83.7636 53.8955 83.7636 53.8955 82.0428 51.9256L80.3528 49.9558L80.2606 50.9812C80.1684 51.7637 80.2914 52.1145 80.783 52.4383C81.1517 52.7082 81.4283 53.1669 81.4283 53.4637C81.4283 54.0034 81.2746 54.0304 78.6628 54.0304H75.8973V53.2478C75.8973 52.7082 76.0817 52.4383 76.5118 52.3304C77.0649 52.1955 77.1264 51.9526 77.1264 49.2002C77.1264 46.5018 77.0649 46.178 76.5118 45.8812C76.1431 45.6653 75.8973 45.2336 75.8973 44.8018V44.0463H78.5091C79.9533 44.0463 81.121 44.1272 81.121 44.2351ZM28.7611 56.324C28.6382 56.7018 28.7304 57.5113 28.9147 58.105C29.4371 59.5621 29.9287 59.0494 29.9287 57.1336V55.6494H31.0964C31.926 55.6494 32.264 55.7574 32.264 56.0542C32.264 56.2701 32.1411 56.4589 31.9875 56.4589C31.7417 56.4589 32.3869 58.8066 32.6942 59.0764C32.7557 59.1304 33.0322 58.6447 33.278 57.9701C33.5546 57.2415 33.6468 56.6748 33.4624 56.5939C32.7557 56.1891 33.2166 55.6494 34.2613 55.6494C34.8452 55.6494 35.3368 55.7843 35.3368 55.9462C35.3368 56.1082 34.8759 57.2415 34.3535 58.4828C33.4624 60.4256 33.2166 60.7494 32.5406 60.8304C31.8031 60.9383 31.6802 60.8304 31.3422 59.8589L30.9427 58.7526L30.4818 59.697C30.2053 60.2097 29.9902 60.6415 29.9595 60.6685C29.9595 60.6955 29.5907 60.7764 29.1298 60.8843C28.3309 61.0462 28.3002 60.9923 27.3783 58.4558C26.856 57.0526 26.4258 55.8383 26.4258 55.7574C26.4258 55.7034 26.9789 55.6494 27.6856 55.6494C28.884 55.6494 28.9454 55.6764 28.7611 56.324ZM40.5605 55.9193C41.4823 56.351 41.9125 58.132 41.3594 59.2653C40.837 60.3986 40.0689 60.7764 38.4403 60.7764C36.6581 60.7764 35.9514 60.0748 35.9514 58.3478C35.9514 56.5399 36.8732 55.6494 38.7168 55.6494C39.4236 55.6494 40.2532 55.7843 40.5605 55.9193ZM47.6279 56.4589C47.6279 57.2685 46.9826 57.5923 46.5524 56.9986C46.4602 56.8367 46.1529 56.7288 45.9071 56.7288C45.2926 56.7288 45.2926 59.5082 45.9378 59.9669C46.7368 60.5605 46.4295 60.7764 44.8624 60.7764C43.6947 60.7764 43.326 60.6685 43.326 60.3716C43.326 60.1558 43.4796 59.9669 43.6333 59.9669C43.8176 59.9669 43.9405 59.2383 43.9405 58.3478C43.9405 57.1066 43.8484 56.7288 43.5104 56.7288C43.2645 56.7288 42.9573 56.8367 42.8651 56.9986C42.4963 57.5383 42.0969 57.2415 42.0969 56.4589V55.6494H44.8624H47.6279V56.4589ZM54.2343 56.0002C54.6645 56.297 54.7567 56.5939 54.603 57.2145C54.4801 57.6732 54.5416 58.132 54.6952 58.2129C55.279 58.5367 55.0332 59.9129 54.3265 60.3447C53.4047 60.9113 50.0861 60.9383 50.0861 60.3986C50.0861 60.1828 50.2397 59.9129 50.3933 59.832C50.8543 59.5891 50.7621 57.1875 50.2397 56.5669C49.9939 56.2431 49.9017 55.9193 49.9939 55.8113C50.3626 55.4875 53.6505 55.6494 54.2343 56.0002ZM60.3798 56.324C60.9637 56.8097 61.148 57.2685 61.148 58.2129C61.148 59.9129 60.1955 60.7764 58.2903 60.7764C56.2316 60.7764 55.4634 60.1018 55.4634 58.3478C55.4634 57.1605 55.5863 56.8637 56.3238 56.297C57.5222 55.4066 59.3658 55.4066 60.3798 56.324ZM66.5254 56.324C67.1092 56.8097 67.2936 57.2685 67.2936 58.2129C67.2936 59.8859 66.3103 60.7764 64.5281 60.7764C62.838 60.7764 62.1928 60.4256 61.7626 59.2923C61.3324 58.132 61.7933 56.6748 62.7766 56.0542C63.8213 55.4066 65.665 55.5415 66.5254 56.324ZM72.1485 56.297C72.3329 57.1066 71.7491 57.3764 70.858 56.8367C70.2741 56.5399 69.9361 56.4589 69.721 56.6478C69.5059 56.8367 69.8132 57.1875 70.735 57.7272C73.1318 59.1304 72.4865 60.7764 69.5367 60.7764C67.9388 60.7764 67.9081 60.7764 67.9081 59.9669C67.9081 59.0764 68.3076 58.9415 69.045 59.5621C69.5367 60.0209 70.3663 60.0209 70.4278 59.5621C70.4278 59.4002 70.1512 59.1574 69.7825 58.9955C67.9081 58.1589 67.4472 57.1336 68.5534 56.1621C69.383 55.4336 71.9949 55.5145 72.1485 56.297ZM78.3555 56.4589C78.3555 57.2685 77.7102 57.5923 77.28 56.9986C77.1879 56.8367 76.8806 56.7288 76.6348 56.7288C76.0202 56.7288 76.0202 59.5082 76.6655 59.9669C77.4644 60.5605 77.1571 60.7764 75.59 60.7764C74.4224 60.7764 74.0536 60.6685 74.0536 60.3716C74.0536 60.1558 74.2073 59.9669 74.3609 59.9669C74.5453 59.9669 74.6682 59.2383 74.6682 58.3478C74.6682 57.1066 74.576 56.7288 74.238 56.7288C73.9922 56.7288 73.6849 56.8367 73.5927 56.9986C73.224 57.5383 72.8245 57.2415 72.8245 56.4589V55.6494H75.59H78.3555V56.4589ZM73.8385 61.7748C73.6235 61.8288 73.2547 61.8288 73.0703 61.7748C72.8553 61.6939 73.0089 61.6399 73.4391 61.6399C73.8693 61.6399 74.0229 61.6939 73.8385 61.7748Z" fill="white" stroke="#D7D7D7" stroke-width="2" mask="url(#path-1-inside-1_282_97)"/>
<path d="M63.7639 56.7795C63.2549 56.8723 63.1022 58.0554 63.5094 58.7282C63.7809 59.169 64.222 59.3662 64.9177 59.3662C65.7831 59.3662 65.9018 59.227 65.9018 58.1946C65.9018 57.3131 65.8679 57.2435 65.4267 56.9767C64.9856 56.7215 64.4426 56.6519 63.7639 56.7795Z" fill="white"/>
<path d="M57.3879 56.7795C56.8789 56.8723 56.7262 58.0554 57.1334 58.7282C57.4049 59.169 57.8461 59.3662 58.5417 59.3662C59.4071 59.3662 59.5259 59.227 59.5259 58.1946C59.5259 57.3131 59.4919 57.2435 59.0508 56.9767C58.6096 56.7215 58.0666 56.6519 57.3879 56.7795Z" fill="white"/>
<path d="M57.3879 56.7795C56.8789 56.8723 56.7262 58.0554 57.1334 58.7282C57.4049 59.169 57.8461 59.3662 58.5417 59.3662C59.4071 59.3662 59.5259 59.227 59.5259 58.1946C59.5259 57.3131 59.4919 57.2435 59.0508 56.9767C58.6096 56.7215 58.0666 56.6519 57.3879 56.7795Z" fill="white"/>
<path d="M57.3879 56.7795C56.8789 56.8723 56.7262 58.0554 57.1334 58.7282C57.4049 59.169 57.8461 59.3662 58.5417 59.3662C59.4071 59.3662 59.5259 59.227 59.5259 58.1946C59.5259 57.3131 59.4919 57.2435 59.0508 56.9767C58.6096 56.7215 58.0666 56.6519 57.3879 56.7795Z" fill="white"/>
<path d="M57.3879 56.7795C56.8789 56.8723 56.7262 58.0554 57.1334 58.7282C57.4049 59.169 57.8461 59.3662 58.5417 59.3662C59.4071 59.3662 59.5259 59.227 59.5259 58.1946C59.5259 57.3131 59.4919 57.2435 59.0508 56.9767C58.6096 56.7215 58.0666 56.6519 57.3879 56.7795Z" fill="white"/>
<path d="M37.887 56.7795C37.3779 56.8723 37.2252 58.0554 37.6324 58.7282C37.9039 59.169 38.3451 59.3662 39.0408 59.3662C39.9061 59.3662 40.0249 59.227 40.0249 58.1946C40.0249 57.3131 39.9909 57.2435 39.5498 56.9767C39.1086 56.7215 38.5657 56.6519 37.887 56.7795Z" fill="white"/>
<path d="M37.887 56.7795C37.3779 56.8723 37.2252 58.0554 37.6324 58.7282C37.9039 59.169 38.3451 59.3662 39.0408 59.3662C39.9061 59.3662 40.0249 59.227 40.0249 58.1946C40.0249 57.3131 39.9909 57.2435 39.5498 56.9767C39.1086 56.7215 38.5657 56.6519 37.887 56.7795Z" fill="white"/>
<path d="M37.887 56.7795C37.3779 56.8723 37.2252 58.0554 37.6324 58.7282C37.9039 59.169 38.3451 59.3662 39.0408 59.3662C39.9061 59.3662 40.0249 59.227 40.0249 58.1946C40.0249 57.3131 39.9909 57.2435 39.5498 56.9767C39.1086 56.7215 38.5657 56.6519 37.887 56.7795Z" fill="white"/>
<path d="M37.887 56.7795C37.3779 56.8723 37.2252 58.0554 37.6324 58.7282C37.9039 59.169 38.3451 59.3662 39.0408 59.3662C39.9061 59.3662 40.0249 59.227 40.0249 58.1946C40.0249 57.3131 39.9909 57.2435 39.5498 56.9767C39.1086 56.7215 38.5657 56.6519 37.887 56.7795Z" fill="white"/>
<path d="M33.1641 46.0637C32.1832 46.2966 31.889 49.2664 32.6737 50.9551C33.1968 52.0614 34.0469 52.5564 35.3875 52.5564C37.055 52.5564 37.2839 52.207 37.2839 49.6158C37.2839 47.403 37.2185 47.2283 36.3684 46.5587C35.5183 45.9181 34.472 45.7434 33.1641 46.0637Z" fill="white"/>
<path d="M52 59.3812C52 59.8832 52.4685 59.9948 52.8924 59.6043C53.2271 59.2919 52.9593 58.9349 52.4239 58.9349C52.0669 58.9349 52 59.013 52 59.3812Z" fill="white"/>
<path d="M52 59.3812C52 59.8832 52.4685 59.9948 52.8924 59.6043C53.2271 59.2919 52.9593 58.9349 52.4239 58.9349C52.0669 58.9349 52 59.013 52 59.3812Z" fill="white"/>
<path d="M52 59.3812C52 59.8832 52.4685 59.9948 52.8924 59.6043C53.2271 59.2919 52.9593 58.9349 52.4239 58.9349C52.0669 58.9349 52 59.013 52 59.3812Z" fill="white"/>
<path d="M52 57.347C52 57.849 52.4685 57.9606 52.8924 57.5701C53.2271 57.2577 52.9593 56.9007 52.4239 56.9007C52.0669 56.9007 52 56.9788 52 57.347Z" fill="white"/>
<path d="M52 57.347C52 57.849 52.4685 57.9606 52.8924 57.5701C53.2271 57.2577 52.9593 56.9007 52.4239 56.9007C52.0669 56.9007 52 56.9788 52 57.347Z" fill="white"/>
<path d="M52 57.347C52 57.849 52.4685 57.9606 52.8924 57.5701C53.2271 57.2577 52.9593 56.9007 52.4239 56.9007C52.0669 56.9007 52 56.9788 52 57.347Z" fill="white"/>
<path d="M83.8421 42.205C83.8421 31.0115 80.2683 20.2765 73.9069 12.3616C67.5454 4.44659 58.9175 8.45083e-07 49.921 0C40.9246 -8.45083e-07 32.2967 4.44658 25.9352 12.3616C19.5738 20.2765 16 31.0115 16 42.205L49.921 42.205H83.8421Z" fill="white"/>
<path d="M41.9048 5.69791C42.0987 8.48949 41.9048 8.48949 40.8064 5.78606C40.4188 4.78697 40.0311 3.99357 39.9665 4.05234C39.9019 4.11111 40.0634 5.25713 40.3218 6.63823C40.5803 7.98994 40.8064 9.16535 40.7741 9.2535C40.7741 9.34166 40.1926 8.40134 39.5142 7.19655C38.222 4.9339 37.8989 4.78697 38.6419 6.78516C39.708 9.51797 39.5788 9.75305 38.1897 7.84302C37.4466 6.84393 36.7682 6.05053 36.7036 6.1093C36.639 6.16807 36.8974 6.87331 37.2528 7.66671L37.9312 9.10658L36.8974 8.22502L35.8636 7.34347L36.7682 8.81273C37.6728 10.3408 37.6082 10.3114 35.5083 7.98994C34.8299 7.22593 34.216 6.63823 34.1514 6.697C34.0868 6.75577 34.3776 7.63732 34.8299 8.6658C35.2821 9.69428 35.6375 10.6052 35.6375 10.664C35.6375 10.7228 35.056 10.3114 34.3453 9.72366C32.5361 8.25441 32.4392 8.40134 34.0545 10.1938C35.5729 11.8982 34.9591 11.5162 32.0192 8.98904C30.2424 7.46101 30.0809 7.57855 31.3731 9.34166C32.8269 11.2811 32.8915 11.5162 31.7608 10.5758L30.727 9.69428L31.5993 11.3105C32.6008 13.1029 32.6654 13.1323 30.0163 11.0166L29.0794 10.282L30.0486 11.6043C31.6639 13.8082 31.5993 13.8963 29.6609 11.9569C28.6271 10.9578 27.7226 10.1644 27.658 10.2526C27.561 10.3114 28.0779 11.1635 28.7564 12.1039C30.6947 14.7191 30.727 14.8073 28.9179 13.0736L27.2057 11.4574L28.0456 12.9854C29.0471 14.8954 29.0471 15.013 27.981 14.3959L27.1411 13.867L27.8841 14.8661L28.6594 15.8651L27.8518 15.2774C27.4318 14.9542 26.6888 14.3665 26.2042 13.9845C25.0412 13.0442 25.0735 13.3674 26.2042 14.9248C27.7549 16.9818 27.7549 17.0405 26.398 16.3059L25.1381 15.6301L26.4303 16.8349C27.1088 17.5107 27.5933 18.069 27.4318 18.069C27.3026 18.069 26.2365 17.5695 25.0412 16.9818C22.489 15.6888 22.6506 16.0708 25.4612 17.9515C26.6242 18.7155 27.4964 19.3914 27.4641 19.4501C27.3995 19.4795 26.5596 19.2738 25.5904 18.9212L23.8459 18.3335L24.6535 18.9506L25.4612 19.5677L24.2012 19.0975C22.489 18.4804 22.4567 18.5392 23.8782 19.5677C25.5581 20.7725 25.5904 20.8018 24.5243 20.4198C23.0382 19.9203 23.2321 20.2435 25.0412 21.3895C25.9781 22.0066 26.6565 22.4768 26.5596 22.4768C26.495 22.4768 25.2673 22.1536 23.8782 21.7422C22.4567 21.3308 21.2614 21.0369 21.1968 21.0957C21.1322 21.1545 21.9398 21.6246 22.9413 22.1536C23.9751 22.6825 24.5243 23.0351 24.1689 22.947C23.8136 22.8882 23.1675 22.7413 22.7152 22.6531C22.2629 22.5356 23.0059 22.9763 24.3305 23.6228C25.655 24.2693 26.6242 24.7982 26.4303 24.7982C26.2688 24.8276 24.8797 24.6219 23.3936 24.3868C21.8752 24.1517 20.6153 24.0048 20.5507 24.0636C20.4861 24.1224 21.3583 24.475 22.4567 24.857L24.492 25.5622L23.0382 25.7091L21.5845 25.8855L22.6183 26.1205C24.2658 26.4732 24.2012 26.8846 22.489 26.9139L20.9383 26.9433L22.5536 27.3253C23.4582 27.531 24.1043 27.7367 24.0074 27.7661C23.9105 27.7955 22.8444 28.06 21.5845 28.3538L19.3231 28.8827L21.4229 28.9415C23.2967 29.0003 23.3936 29.0297 22.2952 29.2354C20.4861 29.5292 20.4538 29.8231 22.2306 29.8231C24.2658 29.8231 23.9428 30.0581 21.2291 30.5283L19 30.9397L21.5199 30.9691C22.909 30.9985 23.9751 31.116 23.8782 31.2629C23.7813 31.4099 22.6506 31.7625 21.3583 32.0563L19 32.6146L21.746 32.7028L24.492 32.8203L23.0382 33.3493L21.5845 33.9076L23.6843 33.937L25.7842 33.9664L22.7152 35.1418C21.0353 35.7882 20.0015 36.2584 20.4538 36.1702C20.906 36.1115 22.2952 35.9645 23.5228 35.847C25.7196 35.6707 25.7519 35.7001 24.8797 36.1409C23.4582 36.8755 24.0074 36.9343 26.0427 36.3172C27.981 35.7001 28.3364 35.847 27.238 36.7286C26.1073 37.6689 26.818 37.5807 28.1425 36.611C29.7901 35.4356 30.0486 35.465 29.144 36.6404C28.4979 37.4926 28.4656 37.5513 29.0148 37.1987C29.3702 36.9636 30.0486 36.4347 30.5655 36.0233C31.567 35.2005 31.6639 35.3475 30.9208 36.6698L30.3717 37.6101L31.147 37.0224C31.567 36.6992 32.4069 36.0527 32.9884 35.5532C33.7961 34.8773 33.9899 34.8185 33.8284 35.2593C33.6022 35.7882 33.6345 35.7882 34.7975 35.1711C36.2836 34.3777 36.4128 34.3777 35.9606 35.1418C35.1852 36.4347 35.5406 36.2584 39.805 33.2317C40.1603 32.9673 40.2249 33.026 40.0311 33.5844C39.708 34.4365 40.1926 34.4071 41.1618 33.4668C41.5818 33.0554 42.1956 32.5853 42.5186 32.4089C43.0355 32.1739 43.1001 32.2033 42.9063 32.7616C42.7125 33.2905 43.1971 33.0848 45.2 31.7331C46.6215 30.7928 47.946 29.8818 48.2045 29.7055C48.4952 29.4998 48.4629 29.7055 48.0752 30.2638L47.4614 31.1454L48.7214 30.1169C49.3998 29.5586 50.1751 28.9415 50.369 28.7652C50.6597 28.5301 50.7243 28.0306 50.5951 27.3841C50.4659 26.6495 50.6274 25.9442 51.112 25.0627C52.6304 22.1829 56.3778 21.9479 56.7655 24.7101C56.8947 25.5328 56.8624 25.5622 55.6994 25.4741C54.6333 25.3859 54.3749 25.5328 52.8242 27.0021L51.1443 28.6477H52.4042C54.3103 28.6477 55.3441 28.2069 55.3441 27.3841C55.3441 26.385 55.8609 26.0618 57.3147 26.2087C58.6069 26.3556 58.8654 26.1205 58.187 25.4447C57.767 25.0333 57.8316 25.0333 60.3515 25.5916C60.9976 25.7385 61.1268 25.6798 60.9653 25.2978C60.7068 24.7101 60.836 24.7101 62.4836 25.2978C63.4851 25.6798 63.8728 25.7091 64.0343 25.4447C64.2282 25.1802 64.3897 25.2096 64.7127 25.5622C65.1004 26.003 65.1973 25.9442 65.7142 25.0627L66.2634 24.093L66.8126 25.3565L67.3941 26.6201L68.1372 25.9736L68.9125 25.3271V26.1205C68.9125 26.8552 69.0094 26.9139 69.6555 26.767C71.8523 26.2087 71.7554 26.2087 71.5616 27.0315L71.4 27.8249L72.7569 27.2078C74.1783 26.5319 74.3722 26.6495 73.5645 27.7367C72.9184 28.5595 73.1446 28.7652 75.1152 29.206C77.0859 29.6174 77.3766 29.588 76.1813 29.0884L75.2121 28.7064L76.7628 28.677C78.5396 28.6477 78.8304 28.06 77.0859 28.0306C75.9875 28.0012 75.9552 27.9718 76.6659 27.7661C77.1182 27.6486 78.2166 27.5016 79.0888 27.4723L80.7041 27.4135L78.6042 27.0609L76.5044 26.6789L78.3781 26.4732C80.8657 26.1499 81.0272 25.7091 78.7012 25.6798L76.8274 25.6504L78.2812 25.2684L79.735 24.8864L77.6351 24.8276L75.5352 24.7982L77.9581 23.9167L80.3811 23.0645L77.9581 23.2114L75.5352 23.3583L77.5382 22.5649C78.6689 22.1536 79.5088 21.7422 79.4442 21.6834C79.3796 21.6246 78.475 21.7128 77.4412 21.8597C76.3751 22.0066 75.5029 22.0948 75.4383 22.036C75.3737 22.0066 75.8259 21.6834 76.4075 21.3308C77.5705 20.6549 77.4089 20.5668 75.6967 21.0075L74.566 21.272L75.6644 20.4786C78.2489 18.6273 78.2812 18.598 76.2459 19.2738C75.2121 19.5971 74.2753 19.8027 74.1783 19.7146C74.0491 19.6264 74.3076 19.215 74.7275 18.8037C75.6644 17.8927 75.3414 17.8633 73.823 18.7155C72.5631 19.4207 72.6277 19.215 74.2107 17.3344L75.1798 16.159L74.243 16.8936C73.6938 17.305 73.1769 17.7458 73.0476 17.9221C72.5631 18.5098 72.8215 17.7164 73.3707 16.9524L73.9199 16.159L72.8215 16.8936C70.4955 18.4804 70.3017 18.5686 71.1739 17.6283C71.5939 17.1287 72.4015 16.3059 72.9184 15.777C73.4676 15.2774 73.7907 14.8367 73.6615 14.8367C73.5322 14.8367 72.5308 15.2481 71.4647 15.7476C70.3663 16.2472 69.4294 16.5704 69.3648 16.5116C69.2679 16.4235 70.0109 15.7476 71.0124 14.9836C71.9816 14.2196 72.7569 13.5437 72.6923 13.485C72.6277 13.4262 71.6585 13.6907 70.5278 14.102C69.3971 14.5134 68.4279 14.7779 68.3633 14.7191C68.2987 14.6604 68.9125 14.102 69.7201 13.5143C70.5278 12.8973 71.1416 12.3389 71.077 12.2802C70.9801 12.2214 70.1724 12.4271 69.2679 12.7797C67.0711 13.5731 66.7157 13.5143 67.6526 12.6034L68.4279 11.81L67.3941 12.3096C66.8449 12.574 66.2634 12.8973 66.1665 13.0736C66.0696 13.2205 65.8111 13.3674 65.6173 13.3674C65.4235 13.3674 65.9727 12.6034 66.8449 11.6631C68.4602 9.92936 68.4279 9.92936 66.0373 11.6043C64.9066 12.3977 64.7127 12.4565 65.0035 11.9569C65.1973 11.6337 65.5204 11.2517 65.6819 11.1635C65.8758 11.0754 66.005 10.8403 66.005 10.6346C66.005 10.4583 65.3912 10.8697 64.6158 11.5455C62.1283 13.7494 62.419 13.1617 65.7465 9.10658C66.328 8.40134 66.0373 8.54826 64.3251 9.75305C63.1298 10.6052 62.0637 11.3105 61.9344 11.3105C61.8375 11.3105 62.1283 10.6934 62.6129 9.89997L63.5174 8.51888L62.1283 9.69428L60.7714 10.8697L61.2883 9.92936C62.0637 8.51888 61.9021 8.37195 60.9653 9.63551C59.8669 11.1048 59.673 10.8697 60.513 9.07719C60.8683 8.25441 60.933 7.90179 60.6745 8.22502C59.3177 9.95874 59.2208 9.98813 59.8669 8.40134C60.2545 7.51978 60.7068 6.55008 60.8683 6.22684C61.6437 4.9339 60.4807 6.13868 59.3823 7.78425C58.7362 8.75396 58.1547 9.54735 58.09 9.54735C58.0254 9.54735 58.187 8.8715 58.4131 8.01933L58.8654 6.52069L57.9285 7.51978L56.9917 8.51888L57.6055 6.96147C57.9285 6.13868 58.1547 5.43344 58.1224 5.43344C58.0577 5.43344 57.4762 6.16807 56.8301 7.04962C56.184 7.93117 55.5702 8.6658 55.4733 8.6658C55.3764 8.6658 55.3764 8.57765 55.441 8.43072C55.7963 7.93117 57.9285 3.61157 57.9285 3.43526C57.9285 3.3471 57.2501 3.84665 56.4101 4.58127C55.5379 5.28652 54.5041 6.16807 54.0841 6.46192C53.3088 7.04962 53.3088 7.04962 54.2133 5.43344C55.2471 3.5528 54.9564 3.72911 53.0826 6.16807L51.7258 7.93117L51.9196 6.46192C52.0489 5.63914 52.2104 4.58127 52.3073 4.11111C52.4042 3.52341 52.0812 3.9348 51.3704 5.28652L50.2397 7.34347L50.1428 6.02114L50.0136 4.69882L49.3675 6.46192C49.0121 7.43163 48.7214 8.01933 48.6567 7.78425C48.6244 7.54917 48.4952 6.40315 48.366 5.28652L48.1399 3.22956L47.5583 5.13959C47.1384 6.60885 47.0092 6.84393 46.9445 6.16807C46.9122 5.40406 46.8476 5.37467 46.6215 5.87422C46.46 6.19745 46.3307 6.84393 46.2984 7.34347C46.2661 8.10748 46.2015 8.13687 45.9754 7.63732C45.8138 7.31409 45.6846 6.55008 45.6846 5.96237C45.6523 5.37467 45.5554 4.64004 45.4262 4.34619C45.2646 3.9348 45.1031 4.1405 44.8447 5.13959L44.4893 6.46192L43.9724 5.13959L43.4555 3.81726L43.3909 5.28652L43.3586 6.75577L42.8417 5.28652C42.0341 2.78878 41.6787 2.93571 41.9048 5.69791Z" fill="black"/>
<path d="M60.4737 29.4451C59.0199 29.9153 58.7938 31.6784 59.9245 33.5003C60.3445 34.1468 60.7644 34.9108 60.8937 35.2046C61.0875 35.6454 61.0229 35.6748 60.4414 35.4103C59.7307 35.0577 58.8584 35.4691 58.8584 36.1449C58.8584 36.6151 61.1198 38.4664 63.5427 39.965C64.9642 40.876 65.578 41.0816 66.9672 41.111C68.6471 41.1404 68.6471 41.1404 69.4224 39.8181C69.8424 39.0835 70.4239 38.3194 70.7146 38.1137C71.0054 37.9374 71.1346 37.7611 70.9731 37.7611C70.8115 37.7611 71.0054 37.5554 71.393 37.291C72.1684 36.8208 72.3622 35.8217 71.7161 35.616C71.393 35.5279 71.4254 35.3515 71.813 34.9402C72.3299 34.3524 73.4606 31.8841 73.1699 31.8841C72.7176 31.8841 72.1361 32.795 72.2976 33.2652C72.4268 33.6472 72.3945 33.6766 72.2007 33.4121C71.9745 33.1183 71.7161 33.2358 71.1023 33.8823C70.2946 34.7638 68.9701 35.234 68.0979 34.9402C67.8394 34.852 67.161 34.1174 66.5795 33.324C66.0303 32.5306 65.4488 31.9723 65.2873 32.0604C65.1257 32.1486 65.0934 32.031 65.158 31.8253C65.3519 31.3845 64.2535 30.3855 62.7674 29.7096C61.7659 29.21 61.3136 29.1807 60.4737 29.4451ZM63.9627 33.0007C64.0273 33.2064 63.8658 33.3534 63.575 33.3534C63.2843 33.3534 63.0582 33.1477 63.0582 32.8832C63.0582 32.3836 63.7689 32.4718 63.9627 33.0007Z" fill="#707070"/>
<path d="M53.3594 37.8513C53.3594 38.3508 54.5224 40.2903 55.1685 40.878C55.8792 41.5245 56.2992 41.642 58.1083 41.642C59.8205 41.6714 60.3051 41.5538 60.6605 41.1131C60.9189 40.8192 61.1128 40.4666 61.1128 40.3197C61.1128 39.9964 59.9821 40.0258 59.0775 40.4078C58.1406 40.7898 56.3961 40.0846 54.7485 38.6447C53.8117 37.8219 53.3594 37.5574 53.3594 37.8513Z" fill="#707070"/>
<ellipse cx="63.559" cy="33.0973" rx="0.84803" ry="0.699847" fill="black"/>
<path d="M38.0277 39.8668C39.8691 41.2976 44.9735 42.4796 47.4287 42.0442C48.8825 41.7642 50.4654 40.3956 49.787 39.9602C49.3024 39.6491 48.624 39.7424 45.2965 40.52C42.9059 41.0488 41.0968 40.9244 38.9 39.9913C37.7693 39.5247 37.5431 39.4936 38.0277 39.8668Z" fill="#707070"/>
<ellipse cx="72.3107" cy="33.2001" rx="0.363441" ry="0.583206" fill="black"/>
<ellipse cx="63.5734" cy="32.7471" rx="0.363441" ry="0.349924" fill="#D9D9D9"/>
<ellipse cx="67.4244" cy="40.4864" rx="1.33261" ry="0.816488" fill="black"/>
<ellipse cx="72.1622" cy="33.0712" rx="0.242294" ry="0.233282" fill="#D9D9D9"/>
</svg>
